<svg width="60" height="57" viewBox="0 0 60 57" fill="none" xmlns="http://www.w3.org/2000/svg">
<path d="M45.7438 25.5083C48.9465 25.5083 52.0621 25.5083 55.2213 25.5083C55.2322 25.7255 55.2431 25.8992 55.2431 26.073C55.2431 30.1779 55.2104 34.2937 55.254 38.3986C55.3085 44.0129 51.561 48.2482 47.4541 49.7359C46.441 50.1051 45.3625 50.2897 44.2186 50.583C44.2186 52.4725 44.2186 54.4598 44.2186 56.5014C34.8173 56.5014 25.4705 56.5014 16.091 56.5014C16.091 54.5141 16.091 52.5377 16.091 50.5069C15.4046 50.3766 14.7401 50.2789 14.0974 50.1377C11.3086 49.497 9.12984 47.9007 7.40863 45.6744C5.79635 43.6003 5.03379 41.222 5.02289 38.6049C5.012 34.3479 5.02289 30.1019 5.02289 25.8449C5.02289 25.7581 5.03379 25.6712 5.04468 25.5083C5.82903 25.5083 6.61338 25.5083 7.44131 25.5083C6.51534 24.7698 5.60026 24.1508 4.80502 23.4015C1.76566 20.5346 0.0880216 17.027 0.022659 12.8244C-0.020916 10.1095 0.0117653 7.39459 0.0117653 4.6797C0.0117653 3.81094 0.371259 3.47429 1.25365 3.48515C6.24299 3.59375 10.1756 5.72222 13.1387 9.67509C13.3893 10.0117 13.629 10.3484 13.8468 10.7067C14.0647 11.0542 14.2608 11.4235 14.5222 11.8904C14.6094 11.6081 14.6639 11.4343 14.7292 11.2606C16.6356 5.35299 20.6881 1.79107 26.8213 0.683394C28.2157 0.433625 29.6755 0.520501 31.1134 0.498782C31.7562 0.487923 32.0721 0.835428 32.1375 1.46528C32.1483 1.51958 32.1483 1.57388 32.1483 1.62817C32.1375 5.53761 32.2682 9.44704 32.0939 13.3565C31.8651 18.3736 29.3922 22.2179 25.2744 25.0522C25.1219 25.1499 24.9694 25.2477 24.8277 25.3563C24.806 25.378 24.7842 25.4106 24.7188 25.5083C26.0369 25.5083 27.3224 25.5191 28.597 25.4974C28.7277 25.4974 28.8693 25.3454 28.9783 25.2368C33.7497 20.4803 38.5539 15.7456 43.2818 10.9348C44.6871 9.50134 45.8527 7.85069 47.149 6.30863C48.075 5.21182 49.0119 4.12587 50.33 3.46343C52.5741 2.35576 54.7747 2.47522 56.8227 3.88696C59.0995 5.46159 60.3196 7.62264 59.9274 10.4787C59.7422 11.8036 59.1867 12.9981 58.2062 13.9103C56.899 15.1374 55.5481 16.3211 54.1428 17.4288C51.1362 19.7962 48.6197 22.6631 45.8745 25.2911C45.8418 25.3128 45.82 25.3671 45.7438 25.5083ZM7.06003 27.5499C7.04913 27.7128 7.02734 27.8105 7.02734 27.9191C7.02734 31.4267 7.02734 34.9344 7.02734 38.4529C7.03824 40.6248 7.61561 42.6229 8.94464 44.3822C11.0362 47.1296 13.7597 48.5414 17.2566 48.5305C25.623 48.5088 33.9894 48.5196 42.3558 48.5196C43.0312 48.5196 43.6957 48.4871 44.3602 48.4219C49.0555 47.9767 53.0099 43.8609 53.1406 39.1587C53.2387 35.4122 53.1842 31.6656 53.1951 27.9191C53.1951 27.7997 53.1515 27.6802 53.1297 27.5499C37.7913 27.5499 22.4529 27.5499 7.06003 27.5499ZM30.0676 2.48608C29.8933 2.48608 29.7517 2.48608 29.6101 2.48608C26.3529 2.42092 23.4116 3.35484 20.8951 5.42901C17.9865 7.82897 16.287 10.8914 16.1345 14.6922C16.0365 17.1356 16.091 19.579 16.0692 22.0115C16.0692 22.1093 16.1018 22.207 16.1345 22.359C16.4069 22.1201 16.6574 21.9355 16.8644 21.7075C18.0409 20.4477 19.2284 19.2098 20.3722 17.9175C22.137 15.9302 23.2917 13.6171 23.8255 11.0108C23.9345 10.4678 24.0216 9.92486 24.1196 9.33844C24.806 9.42532 25.4378 9.50134 26.0805 9.58821C25.83 11.7601 25.2199 13.7366 24.2395 15.5935C22.3004 19.2423 19.675 22.3156 16.3524 24.7916C16.189 24.911 16.1236 25.1716 15.9711 25.454C20.2197 25.682 23.6839 24.3572 26.4945 21.436C28.7931 19.0469 30.0676 16.1908 30.1003 12.8461C30.133 9.47962 30.1221 6.11316 30.1221 2.75757C30.1221 2.70327 30.0894 2.62725 30.0676 2.48608ZM14.0538 22.6848C14.0538 21.1753 14.1083 19.7853 14.0429 18.4062C13.8033 12.7375 11.0145 8.77375 5.86171 6.46067C4.67429 5.92855 3.39972 5.62448 2.0489 5.60276C2.02711 5.7548 2.00532 5.88511 2.00532 6.00457C2.00532 8.15475 1.97264 10.3049 2.01622 12.466C2.09247 16.7012 3.7919 20.1545 7.12539 22.7934C9.14073 24.3789 11.4611 25.2151 14.0647 25.378C13.9885 25.1716 13.9013 24.9653 13.7488 24.8567C10.1865 22.5111 7.58293 19.3618 5.78546 15.5175C5.5349 14.9854 5.32792 14.4424 5.09915 13.8777C5.76367 13.6171 6.35193 13.3999 6.98377 13.1501C7.67008 15.0506 8.58515 16.7881 9.77257 18.3736C10.9491 19.9699 12.3762 21.3491 14.0538 22.6848ZM42.1488 50.5938C34.1092 50.5938 26.1132 50.5938 18.1281 50.5938C18.1281 51.9187 18.1281 53.211 18.1281 54.5032C18.7817 54.5032 19.3918 54.5032 20.089 54.5032C20.089 53.8408 20.089 53.2001 20.089 52.5811C20.7971 52.5811 21.4289 52.5811 22.1152 52.5811C22.1152 53.2435 22.1152 53.8625 22.1152 54.4924C22.8015 54.4924 23.4224 54.4924 24.1088 54.4924C24.1088 53.83 24.1088 53.2001 24.1088 52.5811C24.7951 52.5811 25.4269 52.5811 26.1132 52.5811C26.1132 53.2327 26.1132 53.8625 26.1132 54.5032C31.4947 54.5032 36.8 54.5032 42.1379 54.5032C42.1488 53.1892 42.1488 51.9078 42.1488 50.5938ZM45.5259 11.3475C47.4976 13.313 49.3932 15.2026 51.354 17.1573C53.0861 15.7021 54.8945 14.2687 56.583 12.7158C57.7596 11.6407 58.2389 10.1963 57.8794 8.61085C57.4654 6.77559 56.278 5.53761 54.5023 4.95119C52.6722 4.35392 51.0599 4.94033 49.8071 6.30863C48.3256 7.93756 46.9421 9.66423 45.5259 11.3475ZM37.7151 19.4812C39.5561 21.3165 41.3971 23.1409 43.151 24.8893C44.2949 23.7599 45.4823 22.5979 46.5717 21.5228C44.7633 19.7202 42.9223 17.8849 41.1684 16.1365C40.0354 17.2333 38.8589 18.3736 37.7151 19.4812ZM40.5147 25.4757C39.0441 23.9988 37.5843 22.5219 36.2226 21.1428C34.7737 22.5871 33.3031 24.0531 31.8869 25.4757C34.6975 25.4757 37.6279 25.4757 40.5147 25.4757ZM49.6328 18.6016C47.77 16.7338 45.9289 14.8985 44.1642 13.1393C43.7066 13.5628 43.1946 14.0406 42.7589 14.4424C44.6108 16.2885 46.441 18.1238 48.2602 19.9482C48.7177 19.4921 49.208 19.0143 49.6328 18.6016Z" fill="#C28566"/>
<path d="M9.02087 33.5117C9.39126 33.5117 9.66361 33.5008 9.93595 33.5117C11.2214 33.5877 11.0253 33.2945 11.1125 34.7062C11.2105 36.3134 11.1343 37.9315 11.7661 39.4627C13.0298 42.5251 15.2085 44.3603 18.6292 44.5232C18.7708 44.5341 18.9124 44.5558 19.0649 44.5667C19.0649 45.2182 19.0649 45.8481 19.0649 46.5105C17.5398 46.5648 16.1018 46.3476 14.7728 45.6635C11.4066 43.9151 9.60914 41.1242 9.26054 37.3777C9.12981 36.1071 9.09713 34.8257 9.02087 33.5117Z" fill="#C28566"/>
<path d="M38.1726 31.481C38.1726 30.8185 38.1726 30.1995 38.1726 29.5371C42.4974 29.5371 46.8114 29.5371 51.1689 29.5371C51.1689 30.1561 51.1689 30.7968 51.1689 31.481C46.8549 31.481 42.5301 31.481 38.1726 31.481Z" fill="#C28566"/>
<path d="M34.1637 31.481C34.1637 30.8294 34.1637 30.1995 34.1637 29.5371C34.8064 29.5371 35.4492 29.5371 36.1246 29.5371C36.1246 30.167 36.1246 30.8077 36.1246 31.481C35.4709 31.481 34.8391 31.481 34.1637 31.481Z" fill="#C28566"/>
<path d="M54.633 6.90601C54.9816 7.27523 55.3956 7.72047 55.7878 8.12227C55.1668 8.73041 54.5023 9.38198 53.8487 10.0336C53.5001 9.66433 53.0752 9.21909 52.7048 8.81728C53.304 8.23087 53.9576 7.5793 54.633 6.90601Z" fill="#C28566"/>
<path d="M51.561 9.91406C51.9641 10.3159 52.3998 10.7502 52.8029 11.152C52.1602 11.7819 51.5065 12.4226 50.8747 13.0416C50.4825 12.6615 50.0359 12.2271 49.611 11.8036C50.2538 11.1846 50.9074 10.5439 51.561 9.91406Z" fill="#C28566"/>
</svg>
