<svg width="60" height="41" viewBox="0 0 60 41" fill="none" xmlns="http://www.w3.org/2000/svg">
<path d="M24.3576 38.5818C23.8999 38.4202 23.4422 38.2586 22.9947 38.0869C13.8204 34.5014 7.50409 28.1282 4.08659 18.9372C3.35427 16.9576 3.00845 14.8769 2.8152 12.7761C2.75417 12.0994 3.18136 11.6752 3.89334 11.6954C6.18184 11.7661 8.38898 12.3115 10.5249 13.0791C11.5725 13.4528 12.5897 13.9174 13.678 14.3618C13.678 14.1598 13.678 13.9881 13.678 13.8164C13.6271 11.2005 13.7288 8.60478 14.4713 6.06966C14.7154 5.23136 15.1019 5.04956 15.8851 5.37276C18.7432 6.53427 21.2046 8.30178 23.4931 10.3319C23.6152 10.443 23.7474 10.544 23.8694 10.645C24.2966 9.55419 24.6831 8.48358 25.1408 7.43317C26.1681 5.06976 27.531 2.90834 29.1991 0.938822C29.6975 0.353017 30.2264 0.353017 30.7248 0.908522C33.1658 3.62544 34.8848 6.73627 35.9527 10.2208C35.9934 10.3622 36.0544 10.4935 36.1053 10.645C36.9902 9.9178 37.8344 9.19059 38.7091 8.51388C40.3568 7.24127 42.1571 6.20097 44.0693 5.36266C44.8118 5.03946 45.3102 5.29196 45.5238 6.05956C46.2561 8.59468 46.3883 11.1904 46.3273 13.8063C46.3273 13.9881 46.3273 14.1699 46.3273 14.4022C47.0596 14.079 47.7207 13.7659 48.4124 13.4932C50.8433 12.5236 53.3454 11.8368 55.9898 11.7156C56.9561 11.6752 57.2714 12.0489 57.1799 12.9882C56.5187 19.8866 53.4064 25.6436 48.6158 30.5624C45.0966 34.1782 40.9061 36.7941 36.1053 38.4101C35.9731 38.4505 35.851 38.501 35.729 38.5515C35.7086 38.5616 35.6883 38.5919 35.6679 38.6222C43.8048 39.4807 53.5793 35.1377 57.8003 28.0777C57.2104 27.9363 56.6408 27.805 56.0712 27.6636C55.8881 27.6232 55.6949 27.603 55.5321 27.5323C55.105 27.3505 54.8609 26.8657 54.9931 26.4516C55.1355 25.9971 55.5118 25.7547 55.9288 25.8557C57.1595 26.1587 58.3801 26.5122 59.5701 26.9162C60.0481 27.0778 60.1193 27.6434 59.8244 28.1787C58.6649 30.32 57.1494 32.1885 55.3186 33.7944C51.2298 37.4001 46.4086 39.4302 41.0586 40.2584C37.8344 40.7533 34.6508 40.4705 31.4876 39.6827C30.6129 39.4605 29.5958 39.3999 28.7414 39.6322C24.022 40.9049 19.3636 40.723 14.7154 39.309C9.53832 37.7233 5.15456 34.9862 1.81843 30.7038C1.20816 29.9261 0.709778 29.0575 0.201222 28.1989C-0.195452 27.5323 -0.00220077 27.0273 0.750463 26.7849C1.76758 26.4617 2.78469 26.1688 3.82214 25.8961C4.44258 25.7345 4.90028 25.9769 5.03251 26.492C5.1749 27.0475 4.90028 27.4616 4.23916 27.6232C3.58821 27.7848 2.91691 27.9161 2.24562 28.0676C5.35798 33.6833 14.2679 39.4504 24.3576 38.5818ZM29.9925 2.75684C29.6568 3.20124 29.3415 3.57494 29.077 3.97895C25.2629 9.67539 23.9406 15.9778 24.439 22.7146C24.4594 22.9772 24.6221 23.2499 24.7848 23.462C26.3715 25.4921 27.7345 27.6535 28.7414 30.0271C29.2093 31.1381 29.6059 32.2794 30.0433 33.4207C30.1247 33.1783 30.206 32.9359 30.2772 32.7036C31.1825 29.8453 32.5454 27.199 34.2643 24.7447C36.8478 21.0582 40.1229 18.0989 43.9472 15.7253C44.3032 15.5031 44.4456 15.2506 44.4863 14.8466C44.6592 12.7458 44.6287 10.645 44.2829 8.55429C44.2117 8.14018 44.11 7.72608 44.0083 7.26147C41.2621 8.63509 38.8718 10.3218 36.8376 12.4832C36.7257 12.6044 36.6851 12.8468 36.7156 13.0185C36.7969 13.5639 36.9495 14.0992 37.0309 14.6547C37.1631 15.6041 37.2953 16.5536 37.3767 17.5131C37.4275 18.0686 37.0614 18.4625 36.5732 18.4928C36.0646 18.5231 35.729 18.2201 35.6374 17.6444C35.6171 17.4929 35.5866 17.3414 35.5764 17.1899C35.2916 13.978 34.5084 10.8975 33.1964 7.94828C32.3725 6.11006 31.335 4.38295 29.9925 2.75684ZM30.9892 37.7334C38.1395 36.7032 43.8964 33.3096 48.5548 28.007C52.2062 23.8559 54.6371 19.1291 55.3287 13.5639C43.2149 14.7658 32.2504 26.2193 30.9892 37.7334ZM4.65618 13.5437C5.68346 20.9067 9.37558 26.7041 14.9087 31.3906C18.967 34.8347 23.6457 37.0567 29.0465 37.7031C27.5921 25.684 16.3937 14.786 4.65618 13.5437ZM22.5268 20.6946C22.5268 20.6643 22.5472 20.6037 22.5472 20.5431C22.5675 18.0181 22.7506 15.5031 23.2999 13.0286C23.3405 12.8468 23.2287 12.5539 23.0863 12.4226C22.0386 11.4732 21.0215 10.4632 19.8824 9.62489C18.6822 8.73609 17.3701 8.01898 16.119 7.24127C15.997 7.38268 15.9665 7.40287 15.9563 7.43317C15.346 9.9986 15.2748 12.5943 15.5698 15.2001C15.5901 15.3516 15.7427 15.5233 15.8749 15.6142C16.5157 16.0586 17.1972 16.4324 17.8074 16.9071C19.4043 18.1393 20.9605 19.4119 22.5268 20.6946Z" fill="#C28566"/>
</svg>
