<svg width="60" height="69" viewBox="0 0 60 69" fill="none" xmlns="http://www.w3.org/2000/svg">
<path d="M34.4835 4.17237C33.2999 3.3871 32.0708 3.04568 30.7393 2.96601C26.9381 2.71564 23.7857 4.14961 21.0429 6.67613C20.3487 7.31344 19.6772 7.98491 18.983 8.63361C18.3798 9.19126 17.5604 9.05469 17.3214 8.32633C17.2304 8.07595 17.2759 7.6321 17.4466 7.45001C19.848 4.9804 22.3403 2.52217 25.7545 1.57757C29.0208 0.678493 32.3554 0.530543 35.4395 2.41974C37.5563 3.71714 39.0244 5.53805 39.7187 7.93938C39.8211 8.29219 39.9008 8.58808 40.3105 8.75879C44.032 10.3066 46.0919 13.2087 46.8771 17.0781C47.0592 17.9885 47.1047 18.9218 47.2299 19.8436C47.2527 20.0143 47.2868 20.2533 47.4006 20.3444C48.8005 21.5393 49.2329 23.1554 49.2557 24.8853C49.2785 26.2168 49.0964 27.5597 48.9939 28.9254C49.3581 28.9254 49.8361 28.9254 50.3824 28.9254C50.3824 28.6636 50.3824 28.4474 50.3824 28.2198C50.3824 24.9422 50.3824 21.6531 50.3824 18.3755C50.3824 18.2275 50.3824 18.0682 50.3824 17.9203C50.4165 17.2602 50.8262 16.8391 51.3953 16.8505C51.9643 16.8732 52.3399 17.2602 52.3399 17.9203C52.3513 21.9035 52.3513 25.8868 52.3399 29.87C52.3399 30.587 51.9529 30.9284 51.2132 30.9398C50.3369 30.9512 49.4606 30.9056 48.5956 30.9626C48.1063 30.9967 47.5372 31.0764 47.1503 31.3381C45.6366 32.3396 44.1685 33.4208 42.7118 34.502C42.1883 34.8889 42.1314 35.31 42.4159 35.7311C42.7232 36.1863 43.1443 36.3001 43.7133 36.0497C45.4318 35.2986 47.1389 34.5247 48.8574 33.7622C49.9499 33.2728 51.0083 33.785 51.1563 34.9686C51.3156 36.2773 51.4067 37.6089 51.4294 38.929C51.4408 39.9419 50.9742 40.8296 50.3938 41.649C49.176 43.4017 47.5258 44.7218 45.9212 46.0761C44.9766 46.8728 43.9751 47.5898 43.0191 48.3637C42.8142 48.523 42.5752 48.8189 42.598 49.0237C42.6207 49.2286 42.9394 49.5359 43.1443 49.5586C43.8499 49.6497 44.5896 49.7749 45.2611 49.6269C47.6852 49.0693 49.8703 47.9084 51.9643 46.5996C53.1479 45.8599 54.3315 45.0746 55.3558 44.1414C57.0287 42.6278 57.905 40.6248 57.9278 38.3714C57.9961 31.5657 57.9733 24.7487 57.9961 17.943C57.9961 17.6926 57.9847 17.4537 58.0188 17.2033C58.0757 16.6684 58.4399 16.327 58.9407 16.3042C59.4301 16.2814 59.8967 16.6798 59.965 17.1805C59.9877 17.3854 59.9877 17.6016 59.9877 17.8065C59.9877 24.1227 59.9422 30.439 59.9991 36.7553C60.0446 40.8979 58.383 44.1642 55.2647 46.759C52.5106 49.0579 49.3126 50.4918 45.887 51.4592C45.0904 51.6868 44.2027 51.6982 43.3605 51.6641C42.0176 51.6185 40.9478 50.765 40.6746 49.6724C40.3787 48.5344 40.8795 47.3622 42.0176 46.5996C43.9523 45.3136 45.6935 43.7886 47.2982 42.1156C47.4576 41.9563 47.5941 41.7628 47.7648 41.6149C49.563 39.9875 49.7792 37.9617 49.1988 35.6969C48.3225 36.0953 47.4234 36.505 46.5357 36.9033C45.7732 37.2447 45.0335 37.6203 44.2482 37.9162C42.8142 38.4397 41.3575 37.9048 40.686 36.6415C39.9918 35.3327 40.3218 33.8191 41.5168 32.8745C42.0062 32.4876 42.5297 32.1348 43.0077 31.7251C43.1329 31.6226 43.2581 31.3609 43.2125 31.2357C42.1314 28.1629 40.8226 25.2039 38.4327 22.8823C36.9532 21.4483 35.1322 20.5492 33.2203 19.8208C33.061 19.7639 32.8106 19.8208 32.6626 19.9233C30.0792 21.7442 27.2796 23.1782 24.4458 24.5325C21.0543 26.1599 18.4823 28.7206 17.1166 31.8161C17.5604 32.1575 18.027 32.4762 18.4709 32.8404C20.1894 34.2174 20.0983 36.6074 18.2774 37.7341C17.3556 38.2917 16.3996 38.2348 15.4436 37.8024C14.0666 37.1764 12.6895 36.5505 11.3124 35.9245C11.1417 35.8449 10.971 35.7766 10.7548 35.6855C10.4247 37.6658 10.2995 39.5095 11.8132 41.1483C13.6568 43.1513 15.6143 45.0063 17.8905 46.5314C18.6644 47.0549 19.2562 47.6808 19.3813 48.6368C19.5862 50.2301 18.505 51.4933 16.8093 51.6868C15.364 51.8461 13.9869 51.5275 12.6326 51.0381C9.48013 49.8887 6.487 48.4547 4.00601 46.1103C1.46811 43.7317 0.0113807 40.8638 0 37.3585C0 30.7577 0 24.1569 0 17.5561C0 16.6684 0.523512 16.179 1.2405 16.3611C1.66158 16.4635 1.90058 16.7139 1.9461 17.1464C1.96886 17.3854 1.96886 17.6357 1.96886 17.8861C1.96886 24.2821 1.96886 30.6667 1.96886 37.0626C1.96886 38.4966 2.10543 39.9078 2.64032 41.2507C3.26626 42.8213 4.27915 44.1187 5.65621 45.086C8.22825 46.9069 10.9596 48.4661 13.9641 49.479C14.8177 49.7635 15.7054 49.9456 16.5817 49.6611C16.889 49.5586 17.2645 49.3083 17.3556 49.0465C17.4125 48.8758 17.0597 48.5002 16.8207 48.284C14.8063 46.5541 12.7578 44.8698 10.7889 43.1058C10.1516 42.5367 9.68498 41.7628 9.20699 41.0345C8.69486 40.2606 8.46725 39.3729 8.52415 38.4397C8.59243 37.3471 8.64934 36.2432 8.77453 35.1507C8.93386 33.7964 9.95812 33.2501 11.1986 33.8077C12.8374 34.5475 14.4876 35.2645 16.1378 35.9928C16.8093 36.2887 17.2759 36.1863 17.5718 35.6969C17.8222 35.2758 17.7311 34.8661 17.1621 34.445C15.8647 33.4663 14.5559 32.499 13.213 31.5657C12.5871 31.1219 11.8701 30.9057 11.0734 30.9512C10.2995 30.9967 9.51427 30.9739 8.74038 30.9512C7.97788 30.9398 7.61369 30.587 7.61369 29.8245C7.60231 25.8754 7.60231 21.9377 7.61369 17.9885C7.61369 17.2829 7.97788 16.8732 8.55829 16.8619C9.16147 16.8505 9.55979 17.2943 9.57117 18.0568C9.58256 21.4483 9.57117 24.8511 9.57117 28.2426C9.57117 28.4702 9.57117 28.6864 9.57117 28.9368C9.95812 28.9368 10.2768 28.9368 10.6523 28.9368C10.6523 28.7319 10.6637 28.5385 10.6523 28.3336C10.4133 24.7032 10.5954 21.0841 11.5059 17.5561C12.1546 15.0182 13.3268 12.7079 14.8291 10.5569C15.1591 10.0903 15.6826 9.97653 16.1265 10.2383C16.5931 10.5114 16.7752 11.0691 16.502 11.5698C16.2403 12.0478 15.9216 12.503 15.6371 12.9697C13.7251 16.0766 12.8033 19.4908 12.6553 23.1099C12.5757 24.9308 12.644 26.7517 12.6326 28.5612C12.6326 28.9482 12.7578 29.1758 13.122 29.3465C13.9072 29.7221 14.6584 30.1545 15.4095 30.5642C15.9785 29.7107 16.5362 28.7888 17.1849 27.9353C18.9034 25.6705 21.0885 23.9748 23.6377 22.7571C27.0519 21.1296 30.3523 19.3201 33.3341 16.9757C34.8932 15.7579 36.3045 14.3809 37.2946 12.6396C38.114 11.1943 38.2278 9.70339 37.6815 8.15562C37.2149 6.83545 36.5321 6.36885 35.1095 6.26642C32.5488 6.08433 30.5231 7.19964 28.6908 8.80432C28.5201 8.95227 28.3607 9.12298 28.19 9.27093C27.7006 9.66925 27.1544 9.65787 26.7674 9.2254C26.3919 8.80432 26.4032 8.2239 26.8357 7.80281C28.8956 5.77705 31.2742 4.3886 34.2445 4.25203C34.2901 4.22927 34.3242 4.21789 34.4835 4.17237ZM45.0107 30.3025C45.557 29.9952 46.0577 29.7221 46.5357 29.4262C46.6495 29.3579 46.7292 29.1985 46.7747 29.0734C47.1958 27.5825 47.3893 26.0688 47.321 24.5211C47.2641 23.2123 46.7747 22.1539 45.5797 21.4597C44.9083 21.0727 44.2937 20.5947 43.6678 20.1281C43.2125 19.7753 43.1101 19.229 43.3719 18.8193C43.6564 18.3641 44.1913 18.2162 44.7148 18.4438C44.8286 18.4893 44.931 18.5348 45.0676 18.5917C44.5782 14.7337 42.9736 11.8999 39.9577 10.7846C39.7414 12.3665 39.1496 13.8004 38.114 14.9954C37.1011 16.179 35.9858 17.2716 34.8819 18.4552C40.3674 20.5378 43.0874 25.0446 45.0107 30.3025Z" fill="#C28566"/>
<path d="M34.9501 48.8188C31.5587 50.1503 28.2697 50.1617 24.9465 48.7733C24.9465 49.991 24.9465 51.1063 24.9465 52.2216C24.9465 53.3711 24.5254 53.906 23.3873 54.1791C21.8396 54.566 20.2918 54.9188 18.7554 55.3285C15.6485 56.148 13.5317 57.9916 12.9512 61.2465C12.6667 62.8057 12.6667 64.4104 12.5302 66.0378C24.1954 66.0378 35.7809 66.0378 47.4575 66.0378C47.1503 63.7389 47.4917 61.3945 46.3764 59.2777C46.1715 58.8907 45.9098 58.5493 45.6708 58.1737C45.2952 57.5819 45.3862 57.0015 45.887 56.6715C46.3878 56.3414 46.8999 56.4552 47.3096 57.0129C48.4249 58.5379 49.0281 60.245 49.1533 62.1228C49.2557 63.6934 49.3581 65.2639 49.4605 66.8344C49.5061 67.6539 49.0964 68.0636 48.2087 68.0636C42.9508 68.0636 37.7043 68.0636 32.4464 68.0636C25.6521 68.0636 18.8692 68.0636 12.0749 68.0636C10.732 68.0636 10.4702 67.779 10.5613 66.4475C10.6751 64.8428 10.7548 63.2268 10.9141 61.6221C11.1531 59.1638 12.2798 57.1722 14.1121 55.5334C15.2615 54.5091 16.5589 53.8377 18.0384 53.4735C19.6772 53.0638 21.3047 52.6427 22.9663 52.2102C22.9663 50.8218 22.989 49.4561 22.9435 48.1018C22.9435 47.9197 22.659 47.6921 22.4655 47.5669C19.9959 46.0191 17.9929 44.0161 16.5248 41.4782C16.411 41.2848 16.3085 41.0685 16.2516 40.8523C16.1378 40.4084 16.3199 40.067 16.7069 39.8508C17.1166 39.6118 17.5263 39.6573 17.8563 39.9874C18.0384 40.1695 18.1636 40.4198 18.3115 40.6361C20.3032 43.8568 23.0345 46.1216 26.665 47.2824C29.863 48.3067 32.8789 47.7831 35.7696 46.224C38.3871 44.8128 40.4584 42.8439 41.881 40.215C42.2338 39.5549 42.8256 39.3273 43.3263 39.6232C43.9068 39.9532 44.0092 40.4995 43.6336 41.1937C42.1883 43.8682 40.117 45.9281 37.5336 47.4759C37.1011 47.7376 36.9304 47.9994 36.9531 48.5001C36.9987 49.5472 36.9873 50.5828 36.9531 51.6298C36.9418 52.0623 37.0556 52.2444 37.5108 52.3582C39.2748 52.7793 41.0388 53.2345 42.7914 53.7125C43.2353 53.8377 43.6678 54.0767 44.0206 54.3612C44.3961 54.6571 44.3392 55.1009 44.1002 55.4993C43.8612 55.8862 43.4971 56.0114 43.076 55.8976C40.8226 55.3058 38.5806 54.7026 36.3386 54.0881C35.4281 53.8377 34.9843 53.2573 34.9843 52.3013C34.9388 51.2087 34.9501 50.0707 34.9501 48.8188Z" fill="#C28566"/>
</svg>
