<svg width="12" height="12" viewBox="0 0 12 12" fill="none" xmlns="http://www.w3.org/2000/svg">
<g clip-path="url(#clip0_1_686)">
<path d="M0.755059 3.03949C0.85355 3.03936 0.951093 3.05873 1.04206 3.09649C1.13303 3.13425 1.21561 3.18965 1.28506 3.25949L5.12156 7.09549C5.23764 7.2116 5.37545 7.3037 5.52713 7.36654C5.67881 7.42938 5.84138 7.46172 6.00556 7.46172C6.16974 7.46172 6.33231 7.42938 6.48399 7.36654C6.63567 7.3037 6.77348 7.2116 6.88956 7.09549L10.7201 3.26449C10.7892 3.19286 10.872 3.13572 10.9635 3.09641C11.055 3.05711 11.1534 3.03642 11.253 3.03555C11.3526 3.03469 11.4514 3.05366 11.5435 3.09137C11.6357 3.12908 11.7194 3.18477 11.7899 3.25519C11.8603 3.32561 11.916 3.40935 11.9537 3.50152C11.9914 3.5937 12.0104 3.69245 12.0095 3.79204C12.0086 3.89162 11.9879 3.99004 11.9486 4.08154C11.9093 4.17305 11.8522 4.2558 11.7806 4.32499L7.95006 8.15599C7.43401 8.67108 6.73468 8.96037 6.00556 8.96037C5.27644 8.96037 4.57711 8.67108 4.06106 8.15599L0.224559 4.31999C0.119601 4.2151 0.0481158 4.08143 0.0191488 3.9359C-0.0098183 3.79037 0.00503477 3.63952 0.0618285 3.50243C0.118622 3.36534 0.214804 3.24818 0.338203 3.16578C0.461603 3.08337 0.606674 3.03942 0.755059 3.03949Z" fill="black"/>
</g>
<defs>
<clipPath id="clip0_1_686">
<rect width="12" height="12" fill="white"/>
</clipPath>
</defs>
</svg>
