<svg width="21" height="21" viewBox="0 0 21 21" fill="none" xmlns="http://www.w3.org/2000/svg">
<g clip-path="url(#clip0_1_690)">
<path d="M21 3.06262C21 3.78887 20.4137 4.37512 19.6875 4.37512H1.3125C0.58625 4.37512 0 3.78887 0 3.06262C0 2.33637 0.58625 1.75012 1.3125 1.75012H19.6875C20.4137 1.75012 21 2.33637 21 3.06262ZM12.6875 17.5001H8.3125C7.58625 17.5001 7 18.0864 7 18.8126C7 19.5389 7.58625 20.1251 8.3125 20.1251H12.6875C13.4137 20.1251 14 19.5389 14 18.8126C14 18.0864 13.4137 17.5001 12.6875 17.5001ZM16.1875 9.62512H4.8125C4.08625 9.62512 3.5 10.2114 3.5 10.9376C3.5 11.6639 4.08625 12.2501 4.8125 12.2501H16.1875C16.9137 12.2501 17.5 11.6639 17.5 10.9376C17.5 10.2114 16.9137 9.62512 16.1875 9.62512Z" fill="black"/>
</g>
<defs>
<clipPath id="clip0_1_690">
<rect width="21" height="21" fill="white"/>
</clipPath>
</defs>
</svg>
