<svg width="13" height="13" viewBox="0 0 13 13" fill="none" xmlns="http://www.w3.org/2000/svg">
<path d="M2.125 12.75C1.78125 12.75 1.48698 12.6276 1.24219 12.3828C0.997396 12.138 0.875 11.8438 0.875 11.5V2.75C0.875 2.40625 0.997396 2.11198 1.24219 1.86719C1.48698 1.6224 1.78125 1.5 2.125 1.5H2.75V0.25H4V1.5H9V0.25H10.25V1.5H10.875C11.2188 1.5 11.513 1.6224 11.7578 1.86719C12.0026 2.11198 12.125 2.40625 12.125 2.75V11.5C12.125 11.8438 12.0026 12.138 11.7578 12.3828C11.513 12.6276 11.2188 12.75 10.875 12.75H2.125ZM2.125 11.5H10.875V5.25H2.125V11.5ZM2.125 4H10.875V2.75H2.125V4Z" fill="#908CE1"/>
</svg>
