<svg width="18" height="18" viewBox="0 0 18 18" fill="none" xmlns="http://www.w3.org/2000/svg">
<g clip-path="url(#clip0_0_204)">
<path d="M8.42986 18C8.18414 17.9992 7.94155 17.9449 7.71886 17.841C7.35511 17.6791 7.06298 17.3899 6.89728 17.0278C6.73157 16.6658 6.70369 16.2557 6.81886 15.8745L7.98961 12H5.23111C4.87966 12.0005 4.533 11.9186 4.21891 11.7609C3.90482 11.6032 3.63204 11.3741 3.42242 11.092C3.2128 10.8099 3.07218 10.4827 3.01182 10.1364C2.95147 9.79022 2.97305 9.43467 3.07486 9.09829L5.34286 1.59829C5.4811 1.1344 5.76607 0.727856 6.155 0.43968C6.54392 0.151504 7.01581 -0.00276122 7.49986 3.7417e-05H10.2696C10.5844 0.000300774 10.8945 0.0767819 11.1733 0.222945C11.4522 0.369107 11.6914 0.580606 11.8708 0.839365C12.0501 1.09812 12.1641 1.39645 12.203 1.70885C12.2419 2.02125 12.2047 2.33843 12.0944 2.63329L10.8321 6.00004H12.7499C13.1586 6.00001 13.5597 6.11135 13.91 6.32209C14.2603 6.53284 14.5465 6.83504 14.738 7.19622C14.9294 7.5574 15.0189 7.96392 14.9967 8.3721C14.9745 8.78029 14.8416 9.17473 14.6121 9.51304L9.81211 17.238C9.66372 17.4704 9.45947 17.6619 9.21801 17.795C8.97654 17.9282 8.70557 17.9986 8.42986 18Z" fill="black"/>
</g>
<defs>
<clipPath id="clip0_0_204">
<rect width="18" height="18" fill="white"/>
</clipPath>
</defs>
</svg>
