<svg width="20" height="20" viewBox="0 0 20 20" fill="none" xmlns="http://www.w3.org/2000/svg">
<g clip-path="url(#clip0_0_199)">
<path d="M13.9875 2.06169L15.0167 0.38669C15.2567 -0.00664336 15.77 -0.12831 16.1625 0.113357C16.555 0.35419 16.6775 0.86669 16.4358 1.25919L15.4067 2.93419C15.25 3.19086 14.9758 3.33169 14.6958 3.33169C14.5467 3.33169 14.3967 3.29169 14.2608 3.20836C13.8683 2.96752 13.7458 2.45419 13.9875 2.06169ZM4.5225 2.93336C4.67917 3.19002 4.95417 3.33169 5.23417 3.33169C5.3825 3.33169 5.5325 3.29169 5.66833 3.20919C6.06084 2.96836 6.18417 2.45586 5.94334 2.06336L4.91584 0.387523C4.675 -0.00497667 4.16167 -0.127477 3.77 0.112523C3.3775 0.353357 3.25417 0.865857 3.495 1.25836L4.5225 2.93336ZM2.70083 4.77336L1.2025 4.05586C0.789168 3.85502 0.288335 4.03169 0.0916682 4.44752C-0.107498 4.86252 0.0683349 5.36002 0.483335 5.55836L1.98167 6.27586C2.0975 6.33169 2.22 6.35836 2.34083 6.35836C2.65167 6.35836 2.95 6.18419 3.0925 5.88502C3.29167 5.47002 3.11583 4.97169 2.70083 4.77336ZM9.88667 3.33419C5.29167 3.41002 1.65 8.39002 4.145 13.1867C4.52417 13.915 5.08667 14.525 5.69083 15.0809C5.92 15.2917 6.0975 15.5525 6.24917 15.8325H9.16667V11.5125C8.19917 11.1675 7.5 10.2509 7.5 9.16586C7.5 8.70502 7.8725 8.33252 8.33334 8.33252C8.79417 8.33252 9.16667 8.70502 9.16667 9.16586C9.16667 9.62669 9.54 9.99919 10 9.99919C10.46 9.99919 10.8333 9.62586 10.8333 9.16586C10.8333 8.70586 11.2058 8.33252 11.6667 8.33252C12.1275 8.33252 12.5 8.70502 12.5 9.16586C12.5 10.2509 11.8008 11.1675 10.8333 11.5125V15.8325H13.7233C13.9133 15.5067 14.1583 15.1992 14.4792 14.9317C15.0283 14.4734 15.545 13.9625 15.8625 13.3217C17.31 10.3942 16.7358 7.27252 14.6742 5.24586C13.39 3.98252 11.6892 3.30669 9.88667 3.33419ZM6.66 17.7317C6.59334 18.9534 7.50834 20 8.73167 20H11.2492C12.4 20 13.3325 19.0675 13.3325 17.9167V17.5H6.65084C6.65084 17.5784 6.665 17.6517 6.66 17.7317ZM19.9275 4.41669C19.7375 3.99752 19.245 3.80836 18.8258 4.00002L17.2158 4.72669C16.7958 4.91586 16.6092 5.40919 16.7992 5.82836C16.9383 6.13669 17.2408 6.31919 17.5592 6.31919C17.6733 6.31919 17.79 6.29586 17.9008 6.24502L19.5108 5.51836C19.9308 5.32919 20.1175 4.83586 19.9275 4.41669Z" fill="black"/>
</g>
<defs>
<clipPath id="clip0_0_199">
<rect width="20" height="20" fill="white"/>
</clipPath>
</defs>
</svg>
