<svg width="20" height="20" viewBox="0 0 20 20" fill="none" xmlns="http://www.w3.org/2000/svg">
<g clip-path="url(#clip0_17_1740)">
<path d="M7.5 2L10 4L13 2H16L18 3.5L19 5.5V8L18 10L10 18L1.5 10L0.5 7L1 4.5L4 2H7.5Z" fill="#908CE1"/>
<path d="M1.61545 2.84089C2.66272 1.79361 4.04919 1.22122 5.52894 1.22122C7.0087 1.22122 8.39941 1.79785 9.44668 2.84513L9.99364 3.39208L10.5491 2.83665C11.5963 1.78937 12.9913 1.2085 14.4711 1.2085C15.9466 1.2085 17.3373 1.78513 18.3803 2.82817C19.4276 3.87544 20.0042 5.26615 20 6.7459C20 8.22565 19.4191 9.61212 18.3718 10.6594L10.4092 18.6221C10.2989 18.7323 10.1505 18.7917 10.0064 18.7917C9.8622 18.7917 9.7138 18.7365 9.60356 18.6263L1.62393 10.6764C0.576654 9.62908 1.90735e-05 8.23837 1.90735e-05 6.75862C-0.00422096 5.27887 0.568174 3.88816 1.61545 2.84089ZM2.42952 9.86652L10.0064 17.4137L17.5662 9.8538C18.3973 9.02277 18.8552 7.92037 18.8552 6.7459C18.8552 5.57143 18.4015 4.46904 17.5705 3.64224C16.7437 2.81545 15.6413 2.35753 14.4711 2.35753C13.2966 2.35753 12.1899 2.81545 11.3589 3.64648L10.4007 4.60472C10.176 4.82943 9.81556 4.82943 9.59084 4.60472L8.64109 3.65496C7.81005 2.82393 6.70342 2.36601 5.53319 2.36601C4.36295 2.36601 3.26056 2.82393 2.42952 3.65072C1.59849 4.48176 1.14481 5.58415 1.14481 6.75862C1.14057 7.93309 1.59849 9.03549 2.42952 9.86652Z" fill="#908CE1"/>
</g>
<defs>
<clipPath id="clip0_17_1740">
<rect width="20" height="20" fill="white" transform="matrix(-1 0 0 1 20 0)"/>
</clipPath>
</defs>
</svg>
