<svg width="45" height="57" viewBox="0 0 45 57" fill="none" xmlns="http://www.w3.org/2000/svg">
<g clip-path="url(#clip0_3487_6)">
<path d="M38.88 17.47V53.78C38.8801 54.086 38.8199 54.389 38.7029 54.6718C38.5859 54.9546 38.4143 55.2115 38.198 55.428C37.9816 55.6443 37.7246 55.8159 37.4418 55.9329C37.1591 56.0499 36.856 56.1101 36.55 56.11H2.83C2.52402 56.11 2.22104 56.0497 1.93835 55.9326C1.65566 55.8155 1.3988 55.6439 1.18244 55.4275C0.966081 55.2112 0.794454 54.9543 0.677361 54.6716C0.560267 54.3889 0.5 54.0859 0.5 53.78V7.52996C0.5 6.912 0.745481 6.31936 1.18244 5.8824C1.6194 5.44544 2.21205 5.19996 2.83 5.19996H27C27.3143 5.19937 27.6254 5.26293 27.9142 5.38673C28.2031 5.51053 28.4637 5.69197 28.68 5.91996L38.23 15.86C38.6487 16.2911 38.882 16.869 38.88 17.47Z" stroke="#D3D3D3" style="stroke:#D3D3D3;stroke:color(display-p3 0.8275 0.8275 0.8275);stroke-opacity:1;" stroke-miterlimit="10"/>
<path d="M38.88 17.73H29C28.7496 17.7313 28.5015 17.6831 28.2698 17.5882C28.0381 17.4933 27.8275 17.3535 27.65 17.177C27.4725 17.0004 27.3316 16.7905 27.2355 16.5593C27.1394 16.3282 27.09 16.0803 27.09 15.83V5.19995" stroke="#D3D3D3" style="stroke:#D3D3D3;stroke:color(display-p3 0.8275 0.8275 0.8275);stroke-opacity:1;" stroke-linejoin="round"/>
<path d="M43.58 12.78V49.08C43.58 49.698 43.3345 50.2906 42.8975 50.7276C42.4606 51.1645 41.8679 51.41 41.25 51.41H7.52995C6.912 51.41 6.31935 51.1645 5.88239 50.7276C5.44543 50.2906 5.19995 49.698 5.19995 49.08V2.83C5.19995 2.21205 5.44543 1.61941 5.88239 1.18245C6.31935 0.745485 6.912 0.500004 7.52995 0.500004H31.7C32.0142 0.499421 32.3253 0.562974 32.6142 0.686775C32.9031 0.810576 33.1636 0.99202 33.38 1.22L42.93 11.16C43.3483 11.5954 43.5814 12.1762 43.58 12.78Z" fill="white" stroke="#B2B2B2" style="fill:white;fill-opacity:1;stroke:#B2B2B2;stroke:color(display-p3 0.6980 0.6980 0.6980);stroke-opacity:1;" stroke-miterlimit="10"/>
<path d="M43.58 13H33.74C33.4896 13.0013 33.2414 12.9531 33.0098 12.8582C32.7781 12.7633 32.5674 12.6236 32.39 12.447C32.2125 12.2704 32.0716 12.0605 31.9755 11.8294C31.8794 11.5982 31.83 11.3503 31.83 11.1V0.5" fill="white" style="fill:white;fill-opacity:1;"/>
<path d="M43.5801 13H33.7401C33.4897 13.0013 33.2416 12.9531 33.0099 12.8582C32.7782 12.7633 32.5676 12.6236 32.3901 12.447C32.2126 12.2704 32.0718 12.0605 31.9757 11.8294C31.8796 11.5982 31.8301 11.3503 31.8301 11.1V0.5" stroke="#B2B2B2" style="stroke:#B2B2B2;stroke:color(display-p3 0.6980 0.6980 0.6980);stroke-opacity:1;" stroke-linejoin="round"/>
<path d="M24.39 23.61V36.09" stroke="#C28566" style="stroke:#C28566;stroke:color(display-p3 0.7608 0.5216 0.4000);stroke-opacity:1;" stroke-width="2" stroke-linejoin="round"/>
<path d="M30.63 29.85H18.15" stroke="#C28566" style="stroke:#C28566;stroke:color(display-p3 0.7608 0.5216 0.4000);stroke-opacity:1;" stroke-width="2" stroke-linejoin="round"/>
</g>
<defs>
<clipPath id="clip0_3487_6">
<rect width="45" height="57" fill="white" style="fill:white;fill-opacity:1;"/>
</clipPath>
</defs>
</svg>
