<svg width="206" height="48" viewBox="0 0 206 48" fill="none" xmlns="http://www.w3.org/2000/svg">
<path d="M9.17338 24.3001C8.90829 22.8611 8.60534 21.4978 8.41599 20.1344C8.18877 18.3924 8.35918 16.6883 9.04084 15.041C9.3438 14.3214 9.79823 14.0563 10.5367 13.9995C13.0929 13.8102 15.2704 14.8705 17.3911 16.1013C18.0917 16.4989 18.7355 17.0102 19.474 17.5025C19.8148 16.6504 20.0988 15.8173 20.4397 15.022C21.3107 12.996 22.4657 11.1782 24.2834 9.85279C25.4385 9.01966 25.874 9.00072 27.0479 9.87173C28.8089 11.1972 29.9829 12.9771 30.8349 14.9652C31.1379 15.6847 31.403 16.4232 31.7438 17.2753C32.0278 17.1049 32.274 16.9534 32.5201 16.783C34.2621 15.609 36.042 14.5108 38.1249 14.17C41.59 13.6019 42.1012 13.8859 42.4988 17.4457C42.7071 19.3581 42.1769 21.3652 41.9687 23.3344C41.9308 23.6374 41.8172 23.9214 41.7982 23.9972C44.0326 24.4327 46.229 24.8114 48.3876 25.3226C49.0692 25.4741 49.713 25.9096 50.3 26.3262C51.5876 27.2161 51.6633 27.5001 51.19 29.0149C50.3 31.8173 48.3497 33.8433 46.0586 35.5096C41.1166 39.1451 35.6633 40.4705 29.6231 38.9558C28.5627 38.6907 27.5213 38.293 26.5178 37.8386C25.9308 37.5735 25.4763 37.5735 24.9272 37.8386C17.2965 41.5498 8.28344 39.1451 2.84912 33.3321C1.56155 31.9688 0.539062 30.435 0.0846245 28.5605C-0.142595 27.6705 0.0846244 27.0646 0.804151 26.5345C2.54616 25.209 4.5722 24.6978 6.69291 24.4516C7.50711 24.338 8.32131 24.338 9.17338 24.3001ZM28.771 36.835C29.3201 37.0244 29.7178 37.1759 30.1343 37.2895C34.6598 38.4824 38.958 37.7629 42.9911 35.4907C45.5095 34.0705 47.687 32.2528 49.0124 29.6398C49.8456 27.9924 49.9024 28.0114 48.1982 27.1593C46.1911 26.1747 44.0136 26.08 41.8172 26.1179C41.2113 26.1368 40.8894 26.3072 40.6053 26.8942C38.2763 31.5143 34.7166 34.7901 29.7746 36.4563C29.4905 36.551 29.2065 36.6646 28.771 36.835ZM22.3521 37.0433C22.3521 36.9676 22.3331 36.8918 22.3331 36.8161C21.4811 36.5131 20.629 36.267 19.7959 35.9072C15.4976 34.1084 12.4491 30.9842 10.3852 26.8753C10.1012 26.3262 9.81717 26.0232 9.17338 26.0989C7.52605 26.3072 5.80297 26.2694 4.23137 26.7617C1.33433 27.6705 1.18285 28.0492 2.92486 30.5108C6.73078 35.8504 12.1083 38.0847 18.584 37.7629C19.8527 37.725 21.1024 37.3084 22.3521 37.0433ZM25.4953 25.6634C26.5935 22.9747 28.0894 20.7782 30.0018 18.8658C30.1154 18.7522 30.1722 18.4682 30.1154 18.2788C29.4527 15.7794 28.3734 13.5072 26.4988 11.6516C25.855 11.0268 25.3627 11.1025 24.7568 11.6895C22.7876 13.6019 21.7651 16.0066 21.1024 18.6007C21.0456 18.809 21.216 19.1498 21.3864 19.3202C23.1473 21.1001 24.4349 23.164 25.4953 25.6634ZM19.1142 26.9321C18.6598 24.6978 18.603 22.2552 19.0006 19.8126C19.0195 19.6421 18.887 19.396 18.7355 19.2634C16.6337 17.5404 14.3805 16.1581 11.616 15.7794C10.8965 15.6847 10.5178 15.8552 10.3663 16.6315C9.91185 18.7901 10.2337 20.8918 10.745 22.9936C10.9911 23.9972 11.4077 24.5084 12.5249 24.7735C14.7592 25.3416 16.9178 26.2126 19.1142 26.9321ZM32.1225 27.3487C34.4515 25.9853 36.7616 25.0954 39.2231 24.641C39.4314 24.6031 39.7154 24.4327 39.7722 24.2623C40.6621 21.7818 41.2113 19.2445 40.6053 16.5936C40.4539 15.9498 40.1509 15.7226 39.4692 15.8173C36.8184 16.1771 34.584 17.3889 32.558 19.0552C32.3876 19.1877 32.274 19.5475 32.3118 19.7747C32.6716 22.2173 32.6905 24.6788 32.1225 27.3487ZM22.8823 34.9794C22.1059 33.7487 21.2349 32.5936 20.6669 31.325C20.1746 30.2078 19.4172 29.4504 18.4136 28.8824C17.5994 28.409 16.7852 27.9167 15.9142 27.5759C14.7592 27.1214 13.5663 26.7995 12.2408 26.383C13.7746 30.3593 18.887 34.4114 22.8823 34.9794ZM38.7497 26.6481C33.5994 27.4055 30.4752 30.4161 28.6574 34.9226C33.0882 33.6161 36.3639 30.7948 38.7497 26.6481ZM30.6266 20.8918C28.9414 22.6528 27.9189 24.641 26.9911 26.7238C26.158 28.6173 26.8018 30.454 26.8397 32.3285C27.9189 30.5676 29.9639 29.5451 30.3237 27.254C30.6266 25.1901 30.9864 23.1451 30.6266 20.8918ZM24.3024 31.2303C25.287 27.5191 23.0905 24.4327 20.6479 21.3842C20.5722 23.0126 20.5911 24.641 20.8373 26.2315C20.9888 27.2729 21.2349 28.409 21.8408 29.2232C22.4846 30.1131 23.5829 30.6623 24.3024 31.2303Z" fill="#C28566"/>
<path d="M56.0684 0C56.2957 0 56.485 0 56.6933 0C56.6933 16 56.6933 31.9811 56.6933 48C56.485 48 56.2767 48 56.0684 48C56.0684 32 56.0684 16.0568 56.0684 0Z" fill="#AFAFAF"/>
<path d="M94.4986 30.994C94.4986 27.5857 94.4986 24.3478 94.4986 21.0342C92.0181 21.0342 89.6134 21.0342 87.0572 21.0342C87.0572 21.3561 87.0572 21.678 87.0572 21.9999C87.0572 24.6887 87.0572 27.3585 87.095 30.0472C87.114 30.7289 86.9246 31.0318 86.2051 31.0129C84.8797 30.975 83.5542 30.994 82.2288 30.994C81.6797 30.994 81.4524 30.7857 81.4524 30.1987C81.4714 22.7573 81.4714 15.2969 81.4524 7.85552C81.4524 7.26853 81.6797 7.06025 82.2288 7.06025C83.5542 7.06025 84.8797 7.06025 86.2051 7.04132C86.9057 7.04132 87.114 7.32534 87.095 8.02593C87.0572 10.4307 87.0572 12.8165 87.0572 15.2212C87.0572 15.562 87.0572 15.9029 87.0572 16.3194C89.5187 16.3194 91.9424 16.3194 94.4607 16.3194C94.4607 15.562 94.4607 14.7857 94.4607 14.0094C94.4607 12.0212 94.4797 10.033 94.4418 8.04487C94.4228 7.38214 94.5933 7.04132 95.3128 7.04132C96.5814 7.06025 97.8311 7.06025 99.0998 7.04132C99.8193 7.02238 100.047 7.34427 100.047 8.0638C100.009 12.665 100.028 17.2851 100.028 21.8863C100.028 24.594 100.009 27.3206 100.047 30.0283C100.047 30.71 99.895 31.0129 99.1755 30.994C97.6228 30.9561 96.0891 30.994 94.4986 30.994Z" fill="#2E2E2E"/>
<path d="M125.173 30.975C125.173 30.5206 125.173 30.2366 125.173 29.9526C125.173 22.7005 125.192 15.4484 125.154 8.19634C125.154 7.3064 125.419 7.07918 126.271 7.07918C129.32 7.11705 132.387 6.90877 135.436 7.11705C138.219 7.3064 140.548 8.57504 141.609 11.3774C142.631 14.104 142.423 16.736 140.491 19.0082C139.848 19.7656 138.977 20.2957 138.219 20.9395C139.545 21.5644 140.17 22.852 140.681 24.2342C141.06 25.2756 141.381 26.336 141.817 27.3395C142.177 28.1348 142.688 28.8354 143.218 29.7064C142.215 30.8804 140.757 31.2401 139.128 31.1833C137.727 31.1265 137.121 30.104 136.686 29.0058C136.193 27.7561 135.777 26.4496 135.322 25.181C134.413 22.5679 133.58 22.0378 130.664 22.3407C130.664 22.8141 130.664 23.3064 130.664 23.7987C130.664 25.9194 130.645 28.0212 130.683 30.1419C130.683 30.7289 130.551 31.0129 129.907 31.0129C128.392 30.9561 126.858 30.975 125.173 30.975ZM130.778 11.2827C130.778 13.4413 130.778 15.6567 130.778 17.9857C131.952 17.91 133.05 17.91 134.129 17.7585C135.493 17.5502 136.25 16.7928 136.439 15.5052C136.648 14.0662 136.572 12.646 135.228 11.6804C134.944 11.4721 134.546 11.3017 134.186 11.3017C133.069 11.2638 131.933 11.2827 130.778 11.2827Z" fill="#2E2E2E"/>
<path d="M165.656 30.5774C164.065 31.3348 162.399 31.5431 160.809 30.71C160.222 30.407 159.805 29.6117 159.502 28.968C159.142 28.2106 158.934 27.3585 158.745 26.5443C158.631 26.033 158.366 25.9005 157.893 25.9194C155.81 25.9384 153.727 25.9573 151.644 25.9194C151.038 25.9005 150.83 26.1467 150.697 26.6958C150.376 27.9076 149.959 29.1005 149.637 30.3123C149.505 30.8046 149.296 31.0887 148.747 31.0697C147.516 31.0319 146.305 31.0508 145.074 30.9751C144.335 30.9372 144.165 30.5396 144.411 29.8011C146.835 22.5112 149.22 15.2212 151.606 7.91234C151.777 7.38216 152.004 7.09813 152.572 7.11707C154.238 7.136 155.905 7.09813 157.571 7.15494C157.874 7.17387 158.347 7.49577 158.423 7.77979C160.865 15.297 163.27 22.8141 165.694 30.3313C165.694 30.3691 165.656 30.4259 165.656 30.5774ZM157.287 21.4697C156.454 18.4023 155.639 15.3916 154.749 12.1348C153.878 15.4106 153.083 18.4212 152.269 21.4697C153.954 21.4697 155.583 21.4697 157.287 21.4697Z" fill="#2E2E2E"/>
<path d="M120.42 11.8697C117.012 11.8697 113.964 11.8697 110.839 11.8697C110.839 13.4981 110.839 15.0886 110.839 16.736C113.074 16.736 115.27 16.7738 117.467 16.717C118.281 16.6981 118.622 16.9821 118.66 17.7395C118.66 17.8342 118.678 17.9289 118.697 18.0235C119.038 20.9206 118.754 21.2425 115.895 21.2614C114.323 21.2614 112.733 21.2614 111.161 21.2804C111.067 21.2804 110.991 21.3182 110.82 21.3561C110.82 23.0034 110.82 24.6508 110.82 26.3928C114.305 26.3928 117.789 26.3928 121.405 26.3928C121.291 27.2827 121.273 28.1159 121.083 28.8922C120.742 30.2176 119.644 30.994 118.167 30.994C114.892 31.0129 111.597 31.0129 108.321 30.994C106.465 30.975 105.273 29.82 105.273 27.9833C105.235 21.3182 105.273 14.6721 105.235 8.00698C105.235 7.36319 105.5 7.19278 106.087 7.21171C110.631 7.23065 115.176 7.23065 119.72 7.21171C120.269 7.21171 120.591 7.36319 120.572 7.93124C120.553 9.19988 120.477 10.4875 120.42 11.8697Z" fill="#2E2E2E"/>
<path d="M174.215 23.42C174.215 25.9951 174.215 28.3999 174.215 30.975C172.473 30.975 170.787 30.994 169.102 30.9561C168.951 30.9561 168.78 30.6531 168.686 30.4638C168.629 30.3312 168.667 30.1608 168.667 29.9904C168.667 22.7005 168.686 15.4105 168.648 8.12058C168.648 7.34425 168.856 7.07916 169.67 7.09809C172.567 7.13596 175.483 6.98448 178.361 7.11703C182.47 7.32531 185.235 10.2413 185.386 14.3502C185.424 15.5431 185.386 16.7738 185.083 17.9099C184.061 21.5644 181.505 23.0981 178.002 23.4011C176.771 23.5147 175.54 23.42 174.215 23.42ZM174.271 19.2543C176.032 19.1218 177.907 19.7087 179.138 17.891C180.047 16.5277 179.99 13.7442 179.005 12.3999C177.755 10.6957 175.938 11.4153 174.271 11.2638C174.271 13.9715 174.271 16.5655 174.271 19.2543Z" fill="#2E2E2E"/>
<path d="M186.352 7.70403C187.299 7.43894 188.151 7.06024 189.041 6.96556C191.067 6.73835 191.957 7.28746 192.676 9.19988C193.718 11.9644 194.702 14.7667 195.706 17.5502C195.781 17.7395 195.838 17.9289 196.009 18.3454C196.331 17.323 196.539 16.5277 196.842 15.7514C197.845 13.1005 198.868 10.4685 199.947 7.83657C200.061 7.53361 200.496 7.17385 200.78 7.15491C201.973 7.09811 203.166 7.07917 204.34 7.23065C205.419 7.3632 205.438 7.55255 205.022 8.53716C202.996 13.3277 200.97 18.0993 198.963 22.9088C198.754 23.3821 198.66 23.9312 198.641 24.4425C198.603 26.3738 198.603 28.2863 198.641 30.2176C198.641 30.7667 198.508 31.0318 197.902 31.0318C196.539 31.0129 195.194 31.0129 193.831 31.0318C193.206 31.0508 193.036 30.7667 193.036 30.1798C193.055 28.2484 193.074 26.336 193.036 24.4046C193.017 23.8176 192.903 23.2117 192.676 22.6815C190.726 18.0614 188.738 13.4792 186.768 8.87799C186.655 8.51823 186.541 8.19633 186.352 7.70403Z" fill="#2E2E2E"/>
<path d="M72.856 11.775C72.856 12.7975 72.856 13.6307 72.856 14.4827C72.856 19.633 72.8371 24.7644 72.8749 29.9147C72.8749 30.6721 72.6856 31.0129 71.8903 30.994C70.7164 30.9561 69.5613 30.9561 68.3874 31.0129C67.4974 31.0508 67.2134 30.7478 67.2134 29.82C67.2513 24.2342 67.2323 18.6484 67.2323 13.0626C67.2323 12.6839 67.2323 12.3242 67.2323 11.8318C65.6039 11.8318 64.0323 11.775 62.4797 11.8508C61.5897 11.8887 61.2868 11.5668 61.3057 10.7336C61.3436 9.82475 61.3247 8.89694 61.3247 7.98806C61.3247 7.40108 61.5708 7.17386 62.1767 7.17386C67.4217 7.19279 72.6477 7.19279 77.8927 7.17386C78.4986 7.17386 78.7637 7.36321 78.7826 7.96913C78.8016 8.30995 78.8773 8.65078 78.8962 8.99161C78.972 10.8094 78.3661 11.5857 76.5673 11.7561C75.3933 11.8697 74.1625 11.775 72.856 11.775Z" fill="#2E2E2E"/>
<path d="M121.803 36.4661V36.8638L118.697 41.5407H119.625C120.174 41.5407 120.572 41.4271 120.856 41.1809C121.14 40.9348 121.31 40.5371 121.405 39.9691H121.822L121.689 41.9762H117.145V41.5407L120.25 36.8638H119.493C118.981 36.8638 118.584 36.9963 118.319 37.2425C118.054 37.4886 117.864 37.9052 117.77 38.4732H117.334L117.505 36.4661H121.803Z" fill="#808080"/>
<path d="M128.26 42.1277C127.9 42.1277 127.578 42.0709 127.275 41.9573C126.972 41.8437 126.707 41.6543 126.461 41.4271C126.177 41.162 125.968 40.8401 125.836 40.4614C125.703 40.0827 125.628 39.6851 125.628 39.2306C125.628 38.7951 125.703 38.3786 125.836 38.0188C125.987 37.659 126.196 37.3372 126.48 37.0531C126.726 36.8259 126.991 36.6366 127.294 36.523C127.597 36.4093 127.919 36.3525 128.278 36.3525C128.638 36.3525 128.96 36.4093 129.263 36.523C129.566 36.6366 129.831 36.8259 130.077 37.0531C130.361 37.3182 130.57 37.6401 130.721 38.0188C130.873 38.3786 130.929 38.7951 130.929 39.2306C130.929 39.6661 130.854 40.0827 130.721 40.4425C130.57 40.8022 130.361 41.1241 130.096 41.4082C129.85 41.6354 129.585 41.8247 129.282 41.9383C128.979 42.0519 128.619 42.1277 128.26 42.1277ZM128.26 41.7301C128.676 41.7301 128.96 41.5596 129.131 41.1999C129.301 40.8401 129.377 40.1963 129.377 39.2306C129.377 38.2839 129.301 37.6401 129.131 37.2803C128.96 36.9206 128.676 36.7502 128.26 36.7502C127.843 36.7502 127.559 36.9206 127.389 37.2803C127.218 37.6401 127.142 38.2839 127.142 39.2306C127.142 40.1774 127.218 40.8401 127.389 41.1999C127.559 41.5596 127.843 41.7301 128.26 41.7301Z" fill="#808080"/>
<path d="M139.223 40.1963V37.4886C139.223 37.2235 139.185 37.0721 139.09 36.9963C138.996 36.9206 138.806 36.8827 138.484 36.8638V36.4851H140.416V36.8638C140.094 36.8827 139.905 36.9395 139.81 37.0153C139.715 37.091 139.677 37.2614 139.677 37.5076V42.1087H139.071L135.701 37.7537V41.0105C135.701 41.2567 135.739 41.4271 135.834 41.5028C135.928 41.5786 136.118 41.6164 136.439 41.6543V42.033H134.527V41.6543C134.849 41.6354 135.038 41.5786 135.133 41.5028C135.209 41.4271 135.265 41.2756 135.265 41.0105V37.5265C135.265 37.2614 135.228 37.1099 135.133 37.0342C135.057 36.9584 134.849 36.9206 134.527 36.8827V36.504H136.345L139.223 40.1963Z" fill="#808080"/>
<path d="M143.938 41.9951V41.6164C144.203 41.5975 144.392 41.5407 144.468 41.4649C144.544 41.3892 144.581 41.2188 144.581 40.9726V37.4886C144.581 37.2425 144.544 37.072 144.468 36.9963C144.392 36.9206 144.203 36.8638 143.938 36.8448V36.4661H149.107L149.22 38.3217H148.804C148.709 37.8105 148.501 37.4318 148.198 37.2046C147.895 36.9774 147.441 36.8638 146.854 36.8638C146.475 36.8638 146.248 36.9016 146.134 36.9774C146.02 37.0531 145.964 37.2235 145.964 37.5075V38.9466H146.305C146.626 38.9466 146.873 38.8519 147.024 38.6815C147.194 38.5111 147.289 38.2271 147.327 37.8484H147.706V40.4425H147.327C147.289 40.0638 147.194 39.7797 147.024 39.6093C146.854 39.4389 146.626 39.3442 146.305 39.3442H145.964V40.9916C145.964 41.2756 146.02 41.446 146.134 41.5217C146.248 41.5975 146.494 41.6354 146.891 41.6354C147.535 41.6354 148.009 41.5028 148.312 41.2567C148.615 41.0105 148.804 40.5939 148.88 40.007H149.296L149.183 42.0141H143.938V41.9951Z" fill="#808080"/>
<path fill-rule="evenodd" clip-rule="evenodd" d="M193.926 39.2201H154.049V38.0672H193.926V39.2201Z" fill="#AFAFAF"/>
<path fill-rule="evenodd" clip-rule="evenodd" d="M112.563 39.2201H72.6667V38.0672H112.563V39.2201Z" fill="#AFAFAF"/>
</svg>
