<svg width="205" height="36" viewBox="0 0 205 36" fill="none" xmlns="http://www.w3.org/2000/svg">
<path d="M9.17338 17.4348C8.90829 15.9958 8.60534 14.6325 8.41599 13.2692C8.18877 11.5271 8.35918 9.823 9.04084 8.17566C9.3438 7.45614 9.79823 7.19105 10.5367 7.13424C13.0929 6.94489 15.2704 8.00525 17.3911 9.23602C18.0917 9.63365 18.7355 10.1449 19.474 10.6372C19.8148 9.78513 20.0988 8.95199 20.4397 8.15673C21.3107 6.13069 22.4657 4.31294 24.2834 2.9875C25.4385 2.15436 25.874 2.13542 27.0479 3.00643C28.8089 4.33187 29.9829 6.11176 30.8349 8.09992C31.1379 8.81945 31.403 9.55791 31.7438 10.41C32.0278 10.2396 32.274 10.0881 32.5201 9.91767C34.2621 8.74371 36.042 7.64548 38.1249 7.30466C41.59 6.73661 42.1012 7.02063 42.4988 10.5804C42.7071 12.4928 42.1769 14.4999 41.9687 16.4692C41.9308 16.7721 41.8172 17.0561 41.7982 17.1319C44.0326 17.5674 46.229 17.9461 48.3876 18.4573C49.0692 18.6088 49.713 19.0443 50.3 19.4609C51.5876 20.3508 51.6633 20.6348 51.19 22.1496C50.3 24.952 48.3497 26.978 46.0586 28.6443C41.1166 32.2798 35.6633 33.6053 29.6231 32.0905C28.5627 31.8254 27.5213 31.4277 26.5178 30.9733C25.9308 30.7082 25.4763 30.7082 24.9272 30.9733C17.2965 34.6845 8.28344 32.2798 2.84912 26.4668C1.56155 25.1035 0.539062 23.5697 0.0846245 21.6952C-0.142595 20.8052 0.0846244 20.1993 0.804151 19.6692C2.54616 18.3437 4.5722 17.8325 6.69291 17.5863C7.50711 17.4727 8.32131 17.4727 9.17338 17.4348ZM28.771 29.9697C29.3201 30.1591 29.7178 30.3106 30.1343 30.4242C34.6598 31.6171 38.958 30.8976 42.9911 28.6254C45.5095 27.2053 47.687 25.3875 49.0124 22.7745C49.8456 21.1271 49.9024 21.1461 48.1982 20.294C46.1911 19.3094 44.0136 19.2147 41.8172 19.2526C41.2113 19.2715 40.8894 19.4419 40.6053 20.0289C38.2763 24.649 34.7166 27.9248 29.7746 29.591C29.4905 29.6857 29.2065 29.7993 28.771 29.9697ZM22.3521 30.178C22.3521 30.1023 22.3331 30.0266 22.3331 29.9508C21.4811 29.6479 20.629 29.4017 19.7959 29.0419C15.4976 27.2431 12.4491 24.1189 10.3852 20.01C10.1012 19.4609 9.81717 19.1579 9.17338 19.2337C7.52605 19.4419 5.80297 19.4041 4.23137 19.8964C1.33433 20.8052 1.18285 21.1839 2.92486 23.6455C6.73078 28.9851 12.1083 31.2195 18.584 30.8976C19.8527 30.8597 21.1024 30.4431 22.3521 30.178ZM25.4953 18.7981C26.5935 16.1094 28.0894 13.9129 30.0018 12.0005C30.1154 11.8869 30.1722 11.6029 30.1154 11.4135C29.4527 8.91412 28.3734 6.64193 26.4988 4.78631C25.855 4.16146 25.3627 4.2372 24.7568 4.82418C22.7876 6.73661 21.7651 9.14134 21.1024 11.7354C21.0456 11.9437 21.216 12.2845 21.3864 12.455C23.1473 14.2348 24.4349 16.2987 25.4953 18.7981ZM19.1142 20.0668C18.6598 17.8325 18.603 15.3899 19.0006 12.9473C19.0195 12.7768 18.887 12.5307 18.7355 12.3981C16.6337 10.6751 14.3805 9.29282 11.616 8.91412C10.8965 8.81945 10.5178 8.98986 10.3663 9.76619C9.91184 11.9248 10.2337 14.0266 10.745 16.1283C10.9911 17.1319 11.4077 17.6431 12.5249 17.9082C14.7592 18.4763 16.9178 19.3473 19.1142 20.0668ZM32.1225 20.4834C34.4515 19.12 36.7616 18.2301 39.2231 17.7757C39.4314 17.7378 39.7154 17.5674 39.7722 17.397C40.6621 14.9165 41.2113 12.3792 40.6053 9.72832C40.4539 9.08454 40.1509 8.85732 39.4692 8.95199C36.8184 9.31176 34.584 10.5236 32.558 12.1899C32.3876 12.3224 32.274 12.6822 32.3118 12.9094C32.6716 15.352 32.6905 17.8135 32.1225 20.4834ZM22.8823 28.1141C22.1059 26.8834 21.2349 25.7283 20.6669 24.4597C20.1746 23.3425 19.4172 22.5851 18.4136 22.0171C17.5994 21.5437 16.7852 21.0514 15.9142 20.7106C14.7592 20.2561 13.5663 19.9342 12.2408 19.5177C13.7746 23.494 18.887 27.5461 22.8823 28.1141ZM38.7497 19.7828C33.5994 20.5402 30.4752 23.5508 28.6574 28.0573C33.0882 26.7508 36.3639 23.9295 38.7497 19.7828ZM30.6266 14.0265C28.9414 15.7875 27.9189 17.7757 26.9911 19.8585C26.158 21.752 26.8018 23.5887 26.8397 25.4632C27.9189 23.7023 29.9639 22.6798 30.3237 20.3887C30.6266 18.3248 30.9864 16.2798 30.6266 14.0265ZM24.3024 24.365C25.287 20.6538 23.0905 17.5674 20.6479 14.5189C20.5722 16.1473 20.5911 17.7757 20.8373 19.3662C20.9888 20.4076 21.2349 21.5437 21.8408 22.3579C22.4846 23.2479 23.5829 23.797 24.3024 24.365Z" fill="#BF5337"/>
<path d="M55.457 0.0523682C55.6843 0.0523682 55.8736 0.0523682 56.0819 0.0523682C56.0819 11.719 56.0819 23.3719 56.0819 35.0524C55.8736 35.0524 55.6653 35.0524 55.457 35.0524C55.457 23.3857 55.457 11.7605 55.457 0.0523682Z" fill="url(#paint0_linear_216_329)"/>
<path d="M93.2752 24.0766C93.2752 20.6683 93.2752 17.4305 93.2752 14.1169C90.7947 14.1169 88.3899 14.1169 85.8337 14.1169C85.8337 14.4387 85.8337 14.7606 85.8337 15.0825C85.8337 17.7713 85.8337 20.4411 85.8716 23.1299C85.8905 23.8115 85.7012 24.1145 84.9817 24.0956C83.6562 24.0577 82.3308 24.0766 81.0053 24.0766C80.4562 24.0766 80.229 23.8683 80.229 23.2814C80.2479 15.8399 80.2479 8.37958 80.229 0.938158C80.229 0.351176 80.4562 0.142891 81.0053 0.142891C82.3308 0.142891 83.6562 0.142892 84.9817 0.123957C85.6823 0.123957 85.8905 0.40798 85.8716 1.10857C85.8337 3.51331 85.8337 5.8991 85.8337 8.30384C85.8337 8.64467 85.8337 8.9855 85.8337 9.40206C88.2953 9.40206 90.7189 9.40206 93.2373 9.40206C93.2373 8.64467 93.2373 7.86834 93.2373 7.092C93.2373 5.10384 93.2562 3.11567 93.2183 1.12751C93.1994 0.464786 93.3698 0.123957 94.0894 0.123957C95.358 0.142892 96.6077 0.142892 97.8763 0.123957C98.5959 0.105022 98.8231 0.426916 98.8231 1.14644C98.7852 5.74763 98.8041 10.3677 98.8041 14.9689C98.8041 17.6766 98.7852 20.4032 98.8231 23.1109C98.8231 23.7926 98.6716 24.0956 97.9521 24.0766C96.3994 24.0387 94.8657 24.0766 93.2752 24.0766Z" fill="#2E2E2E"/>
<path d="M123.95 24.0576C123.95 23.6032 123.95 23.3192 123.95 23.0351C123.95 15.7831 123.969 8.53099 123.931 1.27892C123.931 0.388982 124.196 0.161762 125.048 0.161762C128.096 0.199632 131.164 -0.00865099 134.212 0.199633C136.996 0.388982 139.325 1.65762 140.385 4.45999C141.408 7.18662 141.199 9.81857 139.268 12.0908C138.624 12.8482 137.753 13.3783 136.996 14.0221C138.321 14.647 138.946 15.9345 139.457 17.3168C139.836 18.3582 140.158 19.4186 140.593 20.4221C140.953 21.2174 141.464 21.918 141.995 22.789C140.991 23.9629 139.533 24.3227 137.905 24.2659C136.503 24.2091 135.898 23.1866 135.462 22.0884C134.97 20.8387 134.553 19.5322 134.099 18.2635C133.19 15.6505 132.357 15.1203 129.441 15.4233C129.441 15.8967 129.441 16.389 129.441 16.8813C129.441 19.002 129.422 21.1038 129.46 23.2245C129.46 23.8115 129.327 24.0955 128.683 24.0955C127.169 24.0387 125.635 24.0576 123.95 24.0576ZM129.554 4.36531C129.554 6.52389 129.554 8.73928 129.554 11.0683C130.728 10.9925 131.827 10.9925 132.906 10.8411C134.269 10.6328 135.027 9.87537 135.216 8.5878C135.424 7.14875 135.348 5.72863 134.004 4.76295C133.72 4.55466 133.322 4.38425 132.963 4.38425C131.845 4.34638 130.709 4.36531 129.554 4.36531Z" fill="#2E2E2E"/>
<path d="M164.432 23.66C162.842 24.4174 161.176 24.6257 159.585 23.7925C158.998 23.4896 158.582 22.6943 158.279 22.0505C157.919 21.2931 157.711 20.441 157.521 19.6268C157.408 19.1156 157.143 18.9831 156.669 19.002C154.586 19.0209 152.503 19.0399 150.421 19.002C149.815 18.9831 149.606 19.2292 149.474 19.7783C149.152 20.9902 148.735 22.1831 148.414 23.3949C148.281 23.8872 148.073 24.1712 147.524 24.1523C146.293 24.1144 145.081 24.1333 143.85 24.0576C143.112 24.0197 142.941 23.6221 143.188 22.8836C145.611 15.5937 147.997 8.30376 150.383 0.994886C150.553 0.464708 150.78 0.180685 151.348 0.19962C153.015 0.218555 154.681 0.180684 156.347 0.237489C156.65 0.256424 157.124 0.578318 157.199 0.862342C159.642 8.3795 162.047 15.8967 164.47 23.4138C164.47 23.4517 164.432 23.5085 164.432 23.66ZM156.063 14.5523C155.23 11.4848 154.416 8.47418 153.526 5.21737C152.655 8.49311 151.86 11.5038 151.045 14.5523C152.731 14.5523 154.359 14.5523 156.063 14.5523Z" fill="#2E2E2E"/>
<path d="M119.197 4.95234C115.789 4.95234 112.74 4.95234 109.616 4.95234C109.616 6.58075 109.616 8.17128 109.616 9.81862C111.85 9.81862 114.047 9.85649 116.243 9.79968C117.057 9.78075 117.398 10.0648 117.436 10.8222C117.436 10.9168 117.455 11.0115 117.474 11.1062C117.815 14.0032 117.531 14.3251 114.672 14.3441C113.1 14.3441 111.509 14.3441 109.938 14.363C109.843 14.363 109.767 14.4009 109.597 14.4387C109.597 16.0861 109.597 17.7334 109.597 19.4754C113.081 19.4754 116.565 19.4754 120.182 19.4754C120.068 20.3654 120.049 21.1985 119.86 21.9748C119.519 23.3003 118.421 24.0766 116.944 24.0766C113.668 24.0955 110.373 24.0955 107.098 24.0766C105.242 24.0577 104.049 22.9026 104.049 21.066C104.011 14.4009 104.049 7.75471 104.011 1.08962C104.011 0.445834 104.276 0.27542 104.863 0.294355C109.408 0.31329 113.952 0.31329 118.496 0.294355C119.046 0.294355 119.367 0.445834 119.349 1.01388C119.33 2.28252 119.254 3.57009 119.197 4.95234Z" fill="#2E2E2E"/>
<path d="M172.991 16.5026C172.991 19.0778 172.991 21.4825 172.991 24.0577C171.249 24.0577 169.564 24.0766 167.879 24.0387C167.727 24.0387 167.557 23.7358 167.462 23.5464C167.405 23.4139 167.443 23.2435 167.443 23.073C167.443 15.7831 167.462 8.49316 167.424 1.20322C167.424 0.426888 167.633 0.161801 168.447 0.180736C171.344 0.218605 174.26 0.0671258 177.138 0.19967C181.247 0.407954 184.011 3.32393 184.163 7.43281C184.201 8.62571 184.163 9.85648 183.86 10.9926C182.837 14.647 180.281 16.1807 176.778 16.4837C175.547 16.5973 174.317 16.5026 172.991 16.5026ZM173.048 12.3369C174.809 12.2044 176.683 12.7914 177.914 10.9736C178.823 9.61032 178.766 6.82689 177.782 5.48251C176.532 3.77837 174.714 4.4979 173.048 4.34642C173.048 7.05411 173.048 9.64819 173.048 12.3369Z" fill="#2E2E2E"/>
<path d="M185.128 0.786637C186.075 0.521548 186.927 0.14285 187.817 0.0481754C189.843 -0.179044 190.733 0.370069 191.453 2.2825C192.494 5.04699 193.479 7.84936 194.482 10.6328C194.558 10.8221 194.615 11.0115 194.785 11.4281C195.107 10.4056 195.315 9.6103 195.618 8.83397C196.622 6.18309 197.644 3.55113 198.724 0.919181C198.837 0.616222 199.273 0.256459 199.557 0.237524C200.75 0.18072 201.943 0.161785 203.117 0.313264C204.196 0.445809 204.215 0.635158 203.798 1.61977C201.772 6.41031 199.746 11.1819 197.739 15.9914C197.531 16.4647 197.436 17.0139 197.417 17.5251C197.379 19.4565 197.379 21.3689 197.417 23.3002C197.417 23.8494 197.285 24.1144 196.679 24.1144C195.315 24.0955 193.971 24.0955 192.608 24.1144C191.983 24.1334 191.812 23.8494 191.812 23.2624C191.831 21.331 191.85 19.4186 191.812 17.4872C191.794 16.9002 191.68 16.2943 191.453 15.7642C189.502 11.144 187.514 6.56178 185.545 1.9606C185.431 1.60084 185.318 1.27894 185.128 0.786637Z" fill="#2E2E2E"/>
<path d="M71.6327 4.85765C71.6327 5.88014 71.6327 6.71328 71.6327 7.56535C71.6327 12.7156 71.6137 17.847 71.6516 22.9973C71.6516 23.7547 71.4623 24.0955 70.667 24.0766C69.493 24.0387 68.338 24.0387 67.164 24.0955C66.2741 24.1334 65.9901 23.8304 65.9901 22.9026C66.0279 17.3168 66.009 11.731 66.009 6.14523C66.009 5.76653 66.009 5.40677 66.009 4.91446C64.3806 4.91446 62.809 4.85765 61.2563 4.93339C60.3664 4.97126 60.0634 4.64937 60.0824 3.81623C60.1202 2.90736 60.1013 1.97955 60.1013 1.07067C60.1013 0.483689 60.3475 0.25647 60.9534 0.25647C66.1983 0.275405 71.4244 0.275405 76.6694 0.25647C77.2753 0.25647 77.5404 0.44582 77.5593 1.05174C77.5782 1.39257 77.654 1.73339 77.6729 2.07422C77.7486 3.89197 77.1427 4.6683 75.3439 4.83872C74.1699 4.95233 72.9392 4.85765 71.6327 4.85765Z" fill="#2E2E2E"/>
<path fill-rule="evenodd" clip-rule="evenodd" d="M110.99 32.717H60.0815V31.717H110.99V32.717Z" fill="url(#paint1_linear_216_329)"/>
<path d="M120.648 29.443V29.8406L117.543 34.5176H118.471C119.02 34.5176 119.417 34.4039 119.701 34.1578C119.985 33.9116 120.156 33.514 120.251 32.946H120.667L120.535 34.9531H115.99V34.5176L119.096 29.8406H118.338C117.827 29.8406 117.429 29.9732 117.164 30.2193C116.899 30.4655 116.71 30.882 116.615 31.4501H116.18L116.35 29.443H120.648Z" fill="#2E2E2E"/>
<path d="M127.105 35.1046C126.745 35.1046 126.423 35.0478 126.12 34.9342C125.818 34.8206 125.552 34.6312 125.306 34.404C125.022 34.1389 124.814 33.817 124.681 33.4383C124.549 33.0596 124.473 32.662 124.473 32.2076C124.473 31.7721 124.549 31.3555 124.681 30.9957C124.833 30.636 125.041 30.3141 125.325 30.0301C125.571 29.8028 125.836 29.6135 126.139 29.4999C126.442 29.3863 126.764 29.3295 127.124 29.3295C127.484 29.3295 127.806 29.3863 128.109 29.4999C128.412 29.6135 128.677 29.8028 128.923 30.0301C129.207 30.2951 129.415 30.617 129.567 30.9957C129.718 31.3555 129.775 31.7721 129.775 32.2076C129.775 32.6431 129.699 33.0596 129.567 33.4194C129.415 33.7792 129.207 34.1011 128.942 34.3851C128.696 34.6123 128.431 34.8017 128.128 34.9153C127.825 35.0289 127.465 35.1046 127.105 35.1046ZM127.105 34.707C127.522 34.707 127.806 34.5366 127.976 34.1768C128.147 33.817 128.222 33.1733 128.222 32.2076C128.222 31.2608 128.147 30.617 127.976 30.2573C127.806 29.8975 127.522 29.7271 127.105 29.7271C126.689 29.7271 126.405 29.8975 126.234 30.2573C126.064 30.617 125.988 31.2608 125.988 32.2076C125.988 33.1543 126.064 33.817 126.234 34.1768C126.405 34.5366 126.689 34.707 127.105 34.707Z" fill="#2E2E2E"/>
<path d="M138.068 33.1733V30.4656C138.068 30.2005 138.031 30.049 137.936 29.9733C137.841 29.8975 137.652 29.8597 137.33 29.8407V29.462H139.261V29.8407C138.939 29.8597 138.75 29.9165 138.655 29.9922C138.561 30.068 138.523 30.2384 138.523 30.4845V35.0857H137.917L134.547 30.7307V33.9875C134.547 34.2336 134.584 34.404 134.679 34.4798C134.774 34.5555 134.963 34.5934 135.285 34.6313V35.01H133.373V34.6313C133.694 34.6123 133.884 34.5555 133.978 34.4798C134.054 34.404 134.111 34.2526 134.111 33.9875V30.5035C134.111 30.2384 134.073 30.0869 133.978 30.0111C133.903 29.9354 133.694 29.8975 133.373 29.8597V29.481H135.19L138.068 33.1733Z" fill="#2E2E2E"/>
<path d="M142.783 34.972V34.5933C143.048 34.5744 143.238 34.5176 143.313 34.4418C143.389 34.3661 143.427 34.1957 143.427 33.9495V30.4655C143.427 30.2193 143.389 30.0489 143.313 29.9732C143.238 29.8974 143.048 29.8406 142.783 29.8217V29.443H147.952L148.066 31.2986H147.649C147.555 30.7874 147.347 30.4087 147.044 30.1815C146.741 29.9542 146.286 29.8406 145.699 29.8406C145.32 29.8406 145.093 29.8785 144.98 29.9542C144.866 30.03 144.809 30.2004 144.809 30.4844V31.9235H145.15C145.472 31.9235 145.718 31.8288 145.87 31.6584C146.04 31.488 146.135 31.2039 146.173 30.8252H146.551V33.4193H146.173C146.135 33.0406 146.04 32.7566 145.87 32.5862C145.699 32.4158 145.472 32.3211 145.15 32.3211H144.809V33.9684C144.809 34.2525 144.866 34.4229 144.98 34.4986C145.093 34.5744 145.339 34.6122 145.737 34.6122C146.381 34.6122 146.854 34.4797 147.157 34.2335C147.46 33.9874 147.649 33.5708 147.725 32.9838H148.142L148.028 34.9909H142.783V34.972Z" fill="#2E2E2E"/>
<path fill-rule="evenodd" clip-rule="evenodd" d="M204.05 32.717H153.142V31.717H204.05V32.717Z" fill="url(#paint2_linear_216_329)"/>
<defs>
<linearGradient id="paint0_linear_216_329" x1="55.7695" y1="0.0523682" x2="55.7695" y2="35.0524" gradientUnits="userSpaceOnUse">
<stop stop-color="white" stop-opacity="0"/>
<stop offset="0.3" stop-color="#DEDEDE"/>
<stop offset="0.7" stop-color="#DEDEDE"/>
<stop offset="1" stop-color="white" stop-opacity="0"/>
</linearGradient>
<linearGradient id="paint1_linear_216_329" x1="60.0815" y1="32.217" x2="110.99" y2="32.217" gradientUnits="userSpaceOnUse">
<stop stop-color="white" stop-opacity="0"/>
<stop offset="1" stop-color="#AEAEAE"/>
</linearGradient>
<linearGradient id="paint2_linear_216_329" x1="153.142" y1="32.217" x2="204.05" y2="32.217" gradientUnits="userSpaceOnUse">
<stop stop-color="#AEAEAE"/>
<stop offset="1" stop-color="white" stop-opacity="0"/>
</linearGradient>
</defs>
</svg>
