<svg width="206" height="49" viewBox="0 0 206 49" fill="none" xmlns="http://www.w3.org/2000/svg">
<path d="M9.20584 24.3861C8.93982 22.942 8.63579 21.5738 8.44577 20.2057C8.21774 18.4575 8.38876 16.7474 9.07283 15.0942C9.37686 14.3721 9.8329 14.1061 10.574 14.0491C13.1392 13.8591 15.3245 14.9232 17.4527 16.1583C18.1557 16.5573 18.8018 17.0704 19.5429 17.5644C19.8849 16.7094 20.1699 15.8733 20.512 15.0752C21.3861 13.042 22.5452 11.2178 24.3694 9.88767C25.5285 9.05159 25.9655 9.03259 27.1436 9.90667C28.9108 11.2368 30.0889 13.023 30.944 15.0182C31.2481 15.7403 31.5141 16.4813 31.8561 17.3364C32.1411 17.1654 32.3882 17.0134 32.6352 16.8424C34.3834 15.6643 36.1696 14.5621 38.2598 14.2201C41.7371 13.6501 42.2502 13.9351 42.6492 17.5074C42.8582 19.4266 42.3262 21.4408 42.1172 23.417C42.0791 23.7211 41.9651 24.0061 41.9461 24.0821C44.1884 24.5191 46.3926 24.8992 48.5588 25.4122C49.2429 25.5643 49.8889 26.0013 50.478 26.4193C51.7701 27.3124 51.8461 27.5975 51.3711 29.1176C50.478 31.9299 48.5208 33.9631 46.2216 35.6353C41.2621 39.2836 35.7895 40.6138 29.7279 39.0936C28.6638 38.8276 27.6187 38.4285 26.6116 37.9725C26.0225 37.7065 25.5665 37.7065 25.0154 37.9725C17.3577 41.6969 8.31275 39.2836 2.8592 33.45C1.56707 32.0819 0.54097 30.5428 0.0849239 28.6616C-0.143099 27.7685 0.0849238 27.1604 0.806996 26.6284C2.55517 25.2982 4.58838 24.7852 6.71659 24.5381C7.53367 24.4241 8.35076 24.4241 9.20584 24.3861ZM28.8728 36.9654C29.4239 37.1554 29.8229 37.3074 30.241 37.4214C34.7824 38.6186 39.0958 37.8965 43.1433 35.6163C45.6705 34.1911 47.8557 32.3669 49.1859 29.7447C50.0219 28.0915 50.079 28.1105 48.3688 27.2554C46.3546 26.2673 44.1694 26.1723 41.9651 26.2103C41.3571 26.2293 41.034 26.4003 40.749 26.9894C38.4118 31.6259 34.8394 34.9132 29.8799 36.5854C29.5949 36.6804 29.3099 36.7944 28.8728 36.9654ZM22.4312 37.1744C22.4312 37.0984 22.4122 37.0224 22.4122 36.9464C21.5571 36.6424 20.702 36.3953 19.8659 36.0343C15.5525 34.2291 12.4932 31.0938 10.422 26.9704C10.1369 26.4193 9.85191 26.1153 9.20584 26.1913C7.55268 26.4003 5.8235 26.3623 4.24634 26.8564C1.33905 27.7685 1.18703 28.1485 2.93521 30.6188C6.75459 35.9773 12.1511 38.2195 18.6498 37.8965C19.9229 37.8585 21.177 37.4404 22.4312 37.1744ZM25.5855 25.7543C26.6876 23.056 28.1887 20.8518 30.1079 18.9326C30.222 18.8186 30.279 18.5335 30.222 18.3435C29.5569 15.8353 28.4738 13.555 26.5926 11.6929C25.9465 11.0658 25.4525 11.1418 24.8444 11.7309C22.8682 13.6501 21.8421 16.0633 21.177 18.6666C21.12 18.8756 21.2911 19.2176 21.4621 19.3886C23.2293 21.1748 24.5214 23.246 25.5855 25.7543ZM19.1818 27.0274C18.7258 24.7852 18.6688 22.3339 19.0678 19.8827C19.0868 19.7117 18.9538 19.4646 18.8018 19.3316C16.6926 17.6024 14.4314 16.2153 11.6571 15.8353C10.935 15.7403 10.555 15.9113 10.403 16.6904C9.94692 18.8566 10.2699 20.9658 10.783 23.075C11.03 24.0821 11.4481 24.5952 12.5692 24.8612C14.8114 25.4312 16.9776 26.3053 19.1818 27.0274ZM32.2362 27.4454C34.5734 26.0773 36.8916 25.1842 39.3619 24.7282C39.5709 24.6902 39.8559 24.5191 39.9129 24.3481C40.806 21.8589 41.3571 19.3126 40.749 16.6524C40.597 16.0063 40.293 15.7783 39.6089 15.8733C36.9486 16.2343 34.7064 17.4504 32.6732 19.1226C32.5022 19.2556 32.3882 19.6167 32.4262 19.8447C32.7872 22.2959 32.8062 24.7662 32.2362 27.4454ZM22.9632 35.1032C22.1841 33.8681 21.3101 32.709 20.74 31.4358C20.246 30.3147 19.4859 29.5547 18.4788 28.9846C17.6617 28.5095 16.8446 28.0155 15.9705 27.6735C14.8114 27.2174 13.6143 26.8944 12.2842 26.4763C13.8233 30.4667 18.9538 34.5332 22.9632 35.1032ZM38.8868 26.7424C33.7183 27.5024 30.583 30.5238 28.7588 35.0462C33.2053 33.7351 36.4926 30.9038 38.8868 26.7424ZM30.735 20.9658C29.0438 22.733 28.0177 24.7282 27.0866 26.8184C26.2506 28.7186 26.8966 30.5618 26.9346 32.4429C28.0177 30.6758 30.0699 29.6497 30.431 27.3504C30.735 25.2792 31.096 23.227 30.735 20.9658ZM24.3884 31.3408C25.3765 27.6165 23.1722 24.5191 20.721 21.4598C20.645 23.094 20.664 24.7282 20.911 26.3243C21.063 27.3694 21.3101 28.5095 21.9181 29.3266C22.5642 30.2197 23.6663 30.7708 24.3884 31.3408Z" fill="#C28566"/>
<path d="M56.2668 0C56.4948 0 56.6848 0 56.8938 0C56.8938 16.0566 56.8938 32.0942 56.8938 48.1698C56.6848 48.1698 56.4758 48.1698 56.2668 48.1698C56.2668 32.1132 56.2668 16.1136 56.2668 0Z" fill="#AFAFAF"/>
<path d="M94.833 31.1036C94.833 27.6833 94.833 24.434 94.833 21.1086C92.3437 21.1086 89.9304 21.1086 87.3652 21.1086C87.3652 21.4317 87.3652 21.7547 87.3652 22.0777C87.3652 24.776 87.3652 27.4553 87.4032 30.1535C87.4222 30.8376 87.2322 31.1416 86.5101 31.1226C85.18 31.0846 83.8498 31.1036 82.5197 31.1036C81.9687 31.1036 81.7406 30.8946 81.7406 30.3056C81.7596 22.8378 81.7596 15.3511 81.7406 7.8833C81.7406 7.29424 81.9687 7.08522 82.5197 7.08522C83.8498 7.08522 85.18 7.08522 86.5101 7.06622C87.2132 7.06622 87.4222 7.35125 87.4032 8.05432C87.3652 10.4676 87.3652 12.8618 87.3652 15.275C87.3652 15.6171 87.3652 15.9591 87.3652 16.3772C89.8354 16.3772 92.2677 16.3772 94.7949 16.3772C94.7949 15.6171 94.7949 14.838 94.7949 14.0589C94.7949 12.0637 94.8139 10.0685 94.7759 8.07332C94.7569 7.40826 94.928 7.06622 95.65 7.06622C96.9232 7.08522 98.1773 7.08522 99.4504 7.06622C100.172 7.04722 100.401 7.37025 100.401 8.09232C100.363 12.7098 100.382 17.3463 100.382 21.9637C100.382 24.681 100.363 27.4173 100.401 30.1345C100.401 30.8186 100.248 31.1226 99.5264 31.1036C97.9683 31.0656 96.4291 31.1036 94.833 31.1036Z" fill="#FEFEFE"/>
<path d="M125.616 31.0846C125.616 30.6286 125.616 30.3436 125.616 30.0585C125.616 22.7808 125.635 15.5031 125.597 8.22533C125.597 7.33225 125.863 7.10422 126.718 7.10422C129.778 7.14223 132.856 6.93321 135.915 7.14223C138.708 7.33225 141.046 8.60537 142.11 11.4177C143.136 14.1539 142.927 16.7952 140.989 19.0754C140.343 19.8355 139.469 20.3676 138.708 21.0136C140.039 21.6407 140.666 22.9328 141.179 24.32C141.559 25.3651 141.882 26.4292 142.319 27.4363C142.68 28.2343 143.193 28.9374 143.725 29.8115C142.718 30.9896 141.255 31.3507 139.621 31.2937C138.214 31.2366 137.606 30.2105 137.169 29.1084C136.675 27.8543 136.257 26.5432 135.801 25.27C134.889 22.6478 134.053 22.1157 131.127 22.4198C131.127 22.8948 131.127 23.3889 131.127 23.8829C131.127 26.0111 131.108 28.1203 131.146 30.2485C131.146 30.8376 131.013 31.1226 130.367 31.1226C128.846 31.0656 127.307 31.0846 125.616 31.0846ZM131.241 11.3226C131.241 13.4889 131.241 15.7121 131.241 18.0493C132.419 17.9733 133.521 17.9733 134.604 17.8213C135.972 17.6123 136.732 16.8522 136.922 15.5601C137.131 14.1159 137.055 12.6908 135.706 11.7217C135.421 11.5127 135.022 11.3416 134.661 11.3416C133.54 11.3036 132.4 11.3226 131.241 11.3226Z" fill="#FEFEFE"/>
<path d="M166.242 30.6859C164.646 31.4459 162.974 31.655 161.378 30.8189C160.789 30.5148 160.371 29.7168 160.067 29.0707C159.706 28.3106 159.497 27.4555 159.307 26.6385C159.193 26.1254 158.927 25.9924 158.451 26.0114C156.361 26.0304 154.271 26.0494 152.181 26.0114C151.573 25.9924 151.364 26.2394 151.231 26.7905C150.908 28.0066 150.49 29.2037 150.167 30.4198C150.034 30.9139 149.825 31.1989 149.274 31.1799C148.038 31.1419 146.822 31.1609 145.587 31.0849C144.846 31.0469 144.675 30.6479 144.922 29.9068C147.354 22.591 149.749 15.2753 152.143 7.94057C152.314 7.40852 152.542 7.12349 153.112 7.14249C154.784 7.1615 156.456 7.12349 158.128 7.1805C158.432 7.1995 158.908 7.52253 158.984 7.80756C161.435 15.3513 163.848 22.8951 166.28 30.4388C166.28 30.4768 166.242 30.5338 166.242 30.6859ZM157.843 21.5459C157.007 18.4676 156.19 15.4463 155.297 12.178C154.423 15.4653 153.625 18.4866 152.808 21.5459C154.499 21.5459 156.133 21.5459 157.843 21.5459Z" fill="#FEFEFE"/>
<path d="M120.847 11.9122C117.426 11.9122 114.367 11.9122 111.232 11.9122C111.232 13.5464 111.232 15.1425 111.232 16.7957C113.474 16.7957 115.678 16.8337 117.882 16.7767C118.699 16.7577 119.041 17.0427 119.079 17.8028C119.079 17.8978 119.098 17.9928 119.117 18.0878C119.459 20.9951 119.174 21.3181 116.305 21.3371C114.728 21.3371 113.132 21.3371 111.555 21.3561C111.46 21.3561 111.384 21.3941 111.213 21.4321C111.213 23.0853 111.213 24.7385 111.213 26.4867C114.709 26.4867 118.205 26.4867 121.835 26.4867C121.721 27.3797 121.702 28.2158 121.512 28.9949C121.17 30.325 120.068 31.1041 118.585 31.1041C115.298 31.1231 111.992 31.1231 108.704 31.1041C106.842 31.0851 105.645 29.926 105.645 28.0828C105.607 21.3941 105.645 14.7245 105.607 8.0358C105.607 7.38973 105.873 7.21872 106.462 7.23772C111.023 7.25672 115.583 7.25672 120.144 7.23772C120.695 7.23772 121.018 7.38973 120.999 7.95979C120.98 9.23292 120.904 10.525 120.847 11.9122Z" fill="#FEFEFE"/>
<path d="M174.831 23.5033C174.831 26.0875 174.831 28.5008 174.831 31.085C173.083 31.085 171.392 31.104 169.701 31.066C169.549 31.066 169.378 30.762 169.283 30.572C169.226 30.439 169.264 30.2679 169.264 30.0969C169.264 22.7812 169.283 15.4655 169.245 8.14972C169.245 7.37064 169.454 7.10461 170.271 7.12361C173.178 7.16162 176.104 7.0096 178.993 7.14262C183.116 7.35164 185.89 10.2779 186.042 14.4013C186.08 15.5985 186.042 16.8336 185.738 17.9737C184.712 21.6411 182.147 23.1802 178.632 23.4843C177.396 23.5983 176.161 23.5033 174.831 23.5033ZM174.888 19.3228C176.655 19.1898 178.537 19.7789 179.772 17.9547C180.684 16.5866 180.627 13.7933 179.639 12.4441C178.384 10.734 176.56 11.456 174.888 11.304C174.888 14.0213 174.888 16.6246 174.888 19.3228Z" fill="#FEFEFE"/>
<path d="M187.011 7.73132C187.961 7.46529 188.816 7.08525 189.71 6.99024C191.743 6.76222 192.636 7.31327 193.358 9.23247C194.403 12.0067 195.391 14.819 196.398 17.6123C196.474 17.8023 196.531 17.9923 196.702 18.4104C197.025 17.3843 197.234 16.5862 197.538 15.8071C198.545 13.1469 199.572 10.5056 200.655 7.86433C200.769 7.5603 201.206 7.19926 201.491 7.18026C202.688 7.12325 203.885 7.10425 205.063 7.25627C206.146 7.38928 206.165 7.5793 205.747 8.5674C203.714 13.3749 201.681 18.1634 199.667 22.9898C199.458 23.4649 199.363 24.0159 199.344 24.529C199.306 26.4672 199.306 28.3864 199.344 30.3246C199.344 30.8756 199.211 31.1417 198.602 31.1417C197.234 31.1227 195.885 31.1227 194.517 31.1417C193.89 31.1607 193.719 30.8756 193.719 30.2866C193.738 28.3484 193.757 26.4292 193.719 24.491C193.7 23.9019 193.586 23.2939 193.358 22.7618C191.401 18.1254 189.406 13.5269 187.429 8.90943C187.315 8.5484 187.201 8.22536 187.011 7.73132Z" fill="#FEFEFE"/>
<path d="M73.1139 11.8172C73.1139 12.8433 73.1139 13.6794 73.1139 14.5344C73.1139 19.703 73.0949 24.8525 73.1329 30.021C73.1329 30.7811 72.9429 31.1231 72.1448 31.1041C70.9667 31.0661 69.8075 31.0661 68.6294 31.1231C67.7363 31.1611 67.4513 30.8571 67.4513 29.926C67.4893 24.3204 67.4703 18.7149 67.4703 13.1093C67.4703 12.7293 67.4703 12.3682 67.4703 11.8742C65.8361 11.8742 64.259 11.8172 62.7008 11.8932C61.8077 11.9312 61.5037 11.6082 61.5227 10.7721C61.5607 9.85998 61.5417 8.92888 61.5417 8.01679C61.5417 7.42773 61.7887 7.19971 62.3968 7.19971C67.6603 7.21871 72.9049 7.21871 78.1684 7.19971C78.7764 7.19971 79.0425 7.38973 79.0615 7.99779C79.0805 8.33982 79.1565 8.68186 79.1755 9.02389C79.2515 10.8481 78.6434 11.6272 76.8383 11.7982C75.6601 11.9122 74.425 11.8172 73.1139 11.8172Z" fill="#FEFEFE"/>
<path d="M122.234 36.5957V36.9947L119.117 41.6882H120.049C120.6 41.6882 120.999 41.5742 121.284 41.3272C121.569 41.0802 121.74 40.6811 121.835 40.1111H122.253L122.12 42.1253H117.559V41.6882L120.676 36.9947H119.915C119.402 36.9947 119.003 37.1278 118.737 37.3748C118.471 37.6218 118.281 38.0398 118.186 38.6099H117.749L117.92 36.5957H122.234Z" fill="#B1B1B1"/>
<path d="M128.713 42.277C128.352 42.277 128.029 42.22 127.725 42.106C127.421 41.992 127.155 41.802 126.908 41.574C126.623 41.3079 126.414 40.9849 126.281 40.6049C126.148 40.2248 126.072 39.8258 126.072 39.3697C126.072 38.9327 126.148 38.5147 126.281 38.1536C126.433 37.7926 126.642 37.4695 126.927 37.1845C127.174 36.9565 127.44 36.7665 127.744 36.6525C128.048 36.5384 128.371 36.4814 128.732 36.4814C129.093 36.4814 129.417 36.5384 129.721 36.6525C130.025 36.7665 130.291 36.9565 130.538 37.1845C130.823 37.4505 131.032 37.7736 131.184 38.1536C131.336 38.5147 131.393 38.9327 131.393 39.3697C131.393 39.8068 131.317 40.2248 131.184 40.5859C131.032 40.9469 130.823 41.2699 130.557 41.555C130.31 41.783 130.044 41.973 129.74 42.087C129.436 42.201 129.074 42.277 128.713 42.277ZM128.713 41.878C129.132 41.878 129.417 41.707 129.588 41.3459C129.759 40.9849 129.835 40.3388 129.835 39.3697C129.835 38.4196 129.759 37.7736 129.588 37.4125C129.417 37.0515 129.132 36.8805 128.713 36.8805C128.295 36.8805 128.01 37.0515 127.839 37.4125C127.668 37.7736 127.592 38.4196 127.592 39.3697C127.592 40.3198 127.668 40.9849 127.839 41.3459C128.01 41.707 128.295 41.878 128.713 41.878Z" fill="#B1B1B1"/>
<path d="M139.715 40.3386V37.6214C139.715 37.3553 139.677 37.2033 139.582 37.1273C139.487 37.0513 139.297 37.0133 138.974 36.9943V36.6143H140.912V36.9943C140.589 37.0133 140.399 37.0703 140.304 37.1463C140.209 37.2223 140.171 37.3933 140.171 37.6404V42.2578H139.563L136.181 37.8874V41.1557C136.181 41.4027 136.219 41.5738 136.314 41.6498C136.409 41.7258 136.599 41.7638 136.922 41.8018V42.1818H135.003V41.8018C135.326 41.7828 135.516 41.7258 135.611 41.6498C135.687 41.5738 135.744 41.4217 135.744 41.1557V37.6594C135.744 37.3933 135.706 37.2413 135.611 37.1653C135.535 37.0893 135.326 37.0513 135.003 37.0133V36.6333H136.827L139.715 40.3386Z" fill="#B1B1B1"/>
<path d="M144.447 42.1443V41.7642C144.713 41.7452 144.903 41.6882 144.979 41.6122C145.055 41.5362 145.093 41.3652 145.093 41.1182V37.6218C145.093 37.3748 145.055 37.2038 144.979 37.1278C144.903 37.0517 144.713 36.9947 144.447 36.9757V36.5957H149.634L149.748 38.4579H149.33C149.235 37.9448 149.026 37.5648 148.722 37.3368C148.418 37.1088 147.962 36.9947 147.373 36.9947C146.993 36.9947 146.765 37.0327 146.651 37.1088C146.537 37.1848 146.48 37.3558 146.48 37.6408V39.085H146.822C147.145 39.085 147.392 38.9899 147.544 38.8189C147.715 38.6479 147.81 38.3629 147.848 37.9828H148.228V40.5861H147.848C147.81 40.2061 147.715 39.921 147.544 39.75C147.373 39.579 147.145 39.484 146.822 39.484H146.48V41.1372C146.48 41.4222 146.537 41.5932 146.651 41.6692C146.765 41.7452 147.012 41.7832 147.411 41.7832C148.057 41.7832 148.532 41.6502 148.836 41.4032C149.14 41.1562 149.33 40.7381 149.406 40.1491H149.824L149.71 42.1633H144.447V42.1443Z" fill="#B1B1B1"/>
<path fill-rule="evenodd" clip-rule="evenodd" d="M194.612 39.3591H154.594V38.2021H194.612V39.3591Z" fill="#B1B1B1"/>
<path fill-rule="evenodd" clip-rule="evenodd" d="M112.961 39.3591H72.9238V38.2021H112.961V39.3591Z" fill="#B1B1B1"/>
</svg>
