<svg width="49" height="72" viewBox="0 0 49 72" fill="none" xmlns="http://www.w3.org/2000/svg">
<path d="M35.9891 28.8281C34.9639 28.163 33.1048 27.7664 31.0123 27.7664C28.9213 27.7664 27.0608 28.163 26.037 28.8281C25.5294 29.1572 25.3859 29.835 25.715 30.3413C26.0441 30.8475 26.7219 30.9923 27.2295 30.6633C27.7738 30.3103 29.1547 29.9545 31.0138 29.9545C32.8728 29.9545 34.2537 30.3103 34.798 30.6633C34.9822 30.7828 35.1889 30.8405 35.3928 30.8405C35.7514 30.8405 36.1016 30.6647 36.3111 30.3427C36.6402 29.835 36.4953 29.1572 35.9891 28.8281Z" fill="#C28566"/>
<path d="M30.5666 43.6063C30.1644 43.1549 29.4725 43.117 29.0211 43.5192C28.3616 44.1084 26.7078 44.7018 24.5 44.7018C22.2908 44.7018 20.637 44.107 19.9789 43.5192C19.5275 43.117 18.8356 43.1549 18.4334 43.6063C18.0313 44.0563 18.0692 44.7482 18.5206 45.1518C19.7399 46.2417 21.9758 46.8913 24.5 46.8913C27.0256 46.8913 29.2602 46.2417 30.4794 45.1518C30.9308 44.7482 30.9702 44.0577 30.5666 43.6063Z" fill="#C28566"/>
<path d="M21.9111 33.9595C21.5033 33.5123 20.8114 33.4814 20.3656 33.8892C20.0492 34.1775 19.1703 34.4883 17.9876 34.4883C16.805 34.4883 15.9261 34.1775 15.6097 33.8892C15.1625 33.4814 14.4706 33.5137 14.0642 33.9595C13.6564 34.4067 13.6887 35.0986 14.1345 35.505C14.9389 36.239 16.3789 36.6764 17.9876 36.6764C19.5964 36.6764 21.0378 36.239 21.8408 35.505C22.2866 35.0986 22.3189 34.4053 21.9111 33.9595Z" fill="#C28566"/>
<path d="M22.963 28.8281C21.9378 28.163 20.0788 27.7664 17.9877 27.7664C15.8966 27.7664 14.0361 28.163 13.0124 28.8281C12.5061 29.1572 12.3613 29.835 12.6903 30.3413C12.8999 30.6633 13.2514 30.8391 13.6086 30.8391C13.8125 30.8391 14.0192 30.7814 14.2034 30.6619C14.7477 30.3089 16.1286 29.9531 17.9877 29.9531C19.8467 29.9531 21.2277 30.3089 21.7719 30.6619C22.2795 30.9909 22.9574 30.8475 23.285 30.3398C23.6141 29.835 23.4706 29.1572 22.963 28.8281Z" fill="#C28566"/>
<path d="M34.9358 33.9595C34.528 33.5123 33.8361 33.4814 33.3903 33.8892C33.0739 34.1775 32.195 34.4883 31.0123 34.4883C29.8297 34.4883 28.9508 34.1775 28.6344 33.8892C28.1886 33.4814 27.4953 33.5137 27.0889 33.9595C26.6811 34.4067 26.7134 35.0986 27.1592 35.505C27.9636 36.239 29.4036 36.6764 31.0123 36.6764C32.6211 36.6764 34.0611 36.239 34.8655 35.505C35.3127 35.0986 35.3436 34.4053 34.9358 33.9595Z" fill="#C28566"/>
<path d="M45.7063 64.575C43.7741 62.9325 41.1388 62.0283 38.2869 62.0283C34.5336 62.0283 31.9377 61.1916 30.845 60.757V55.7958C36.4714 53.7553 40.8448 49.0838 42.4719 43.2745C45.9945 42.833 48.7325 39.8138 48.7325 36.18C48.7325 32.8205 46.3559 29.9334 43.1609 29.205V26.782C44.4252 22.3509 44.3464 17.9986 44.0525 15.1144C43.8852 13.4663 43.632 12.1106 43.4492 11.2641C43.2791 10.478 43.1694 10.0533 43.0878 9.80719C43.0709 9.7425 43.0498 9.67922 43.0203 9.61734C41.8081 7.04813 39.6523 4.85859 36.8933 3.2175C36.837 3.17672 36.778 3.14297 36.7161 3.11344C33.3256 1.14609 29.0492 0 24.5 0C20.9183 0 17.4153 0.70875 14.3708 2.04891C13.8181 2.29219 13.5664 2.93766 13.8097 3.49172C14.053 4.04437 14.6984 4.29609 15.2525 4.05281C18.0214 2.83359 21.2192 2.18953 24.5 2.18953C28.1295 2.18953 31.5523 2.97 34.3902 4.33687C33.0598 5.48156 31.4764 6.58406 29.5836 7.68234C29.0605 7.98609 28.8833 8.65547 29.187 9.17859C29.3895 9.52875 29.7566 9.72422 30.1348 9.72422C30.3219 9.72422 30.5103 9.67641 30.6833 9.57656C32.9755 8.24625 34.8556 6.89906 36.4081 5.47453C38.3066 6.71766 39.8183 8.26594 40.7802 10.0392C40.7422 10.0997 40.7028 10.1587 40.6634 10.2192C40.6367 10.2586 40.61 10.2994 40.5833 10.3387C38.187 13.8291 33.102 17.1731 25.7459 20.0967C25.7023 20.1136 25.6573 20.1305 25.6138 20.1488C25.4534 20.212 25.2931 20.2753 25.1314 20.3372C17.8147 23.1637 10.3517 24.8245 7.72204 25.3631C7.12438 22.9402 6.93594 20.5495 6.95704 18.4134C7.86688 18.2306 8.7725 17.9691 9.65704 17.7145C10.3503 17.5134 11.0675 17.3067 11.7594 17.1464C11.7706 17.1436 11.7819 17.1408 11.7931 17.138C16.2917 15.9469 20.7186 14.3381 26.1481 11.9208C26.7008 11.6747 26.9483 11.0278 26.7022 10.4766C26.4561 9.92531 25.8092 9.67641 25.258 9.9225C19.9466 12.2878 15.6252 13.86 11.2503 15.0188C10.5064 15.1917 9.76532 15.4055 9.04954 15.6122C8.36469 15.8105 7.70375 16.0003 7.05688 16.1522C7.29454 13.095 7.87672 10.8984 7.99344 10.478C8.75141 8.90719 9.94954 7.47984 11.5569 6.23109C12.035 5.86125 12.1208 5.17359 11.7509 4.69547C11.3797 4.21875 10.6934 4.13156 10.2153 4.50141C8.30704 5.98359 6.8811 7.70484 5.97688 9.62016C5.95438 9.66938 5.93469 9.71859 5.91922 9.77063C5.81516 10.1152 3.40625 18.2728 5.83625 26.7862V29.2092C2.64407 29.9334 0.266098 32.8219 0.266098 36.1814C0.266098 39.8152 3.00547 42.8344 6.52672 43.2759C8.15375 49.0852 12.5286 53.7567 18.1536 55.7972V60.7584C17.0581 61.1944 14.4636 62.0311 10.7117 62.0311C7.85985 62.0311 5.22594 62.9353 3.29235 64.5778C1.34188 66.2344 0.266098 68.483 0.266098 70.9059C0.266098 71.5106 0.755473 72 1.36016 72H47.6398C48.2445 72 48.7339 71.5106 48.7339 70.9059C48.7339 68.483 47.6581 66.2344 45.7063 64.575ZM42.9809 40.8361C43.0991 39.9783 43.1609 39.112 43.1609 38.2472V31.4775C45.1297 32.1441 46.5444 34.0228 46.5444 36.1814C46.5444 38.4328 45.0298 40.3453 42.9669 40.9472C42.9725 40.9106 42.9767 40.8727 42.9809 40.8361ZM2.45422 36.1814C2.45422 34.0228 3.86891 32.1441 5.83766 31.4775V38.2472C5.83766 39.1134 5.89954 39.9783 6.01766 40.8361C6.02329 40.8727 6.0261 40.9106 6.03172 40.9472C3.96875 40.3439 2.45422 38.4328 2.45422 36.1814ZM41.188 13.1048C41.2133 13.0767 41.2386 13.0472 41.2639 13.0191C41.3328 12.9403 41.4003 12.8616 41.4664 12.7828C41.4791 12.7673 41.4931 12.7519 41.5058 12.7378C42.0022 15.5039 42.5084 20.3681 41.2766 25.3617C39.0983 24.9159 33.5984 23.7038 27.6303 21.6942C33.8839 19.1067 38.4219 16.2323 41.188 13.1048ZM8.29016 41.1877C8.28875 41.1764 8.28594 41.1638 8.28313 41.1525C8.11016 40.1948 8.02719 39.2203 8.02719 38.2472V27.533C8.03704 27.5316 8.04829 27.5288 8.05954 27.5259C9.75407 27.1884 11.4388 26.7933 13.115 26.3742C14.8813 25.9327 16.6377 25.4545 18.3828 24.9356C19.5261 24.5953 20.6652 24.2381 21.7958 23.8598C21.8169 23.8528 21.8366 23.8458 21.8577 23.8388H27.1452C33.2469 25.8792 38.8508 27.1027 40.9742 27.5316V38.2458C40.9742 39.2175 40.8884 40.1948 40.7169 41.1525C40.7155 41.1638 40.7127 41.175 40.7113 41.1862C39.5919 47.3794 34.9977 52.3786 29.0281 54.0872C29.0183 54.09 29.0084 54.0928 28.9986 54.0956C27.5375 54.5062 26.0188 54.72 24.5 54.72C22.9855 54.72 21.4555 54.5161 20 54.0956C19.993 54.0942 19.9873 54.0914 19.9803 54.09C14.008 52.3828 9.41094 47.3822 8.29016 41.1877ZM2.55829 69.8105C2.81844 68.4591 3.56094 67.2202 4.70985 66.2428C6.24688 64.9364 8.37875 64.2178 10.7117 64.2178C16.3438 64.2178 19.6245 62.5092 19.7609 62.4361C20.1181 62.2463 20.3417 61.875 20.3417 61.47V56.4441C20.3445 56.8617 24.2778 56.9095 24.4986 56.9095C25.8964 56.9095 27.2914 56.7548 28.6555 56.4441V61.4714C28.6555 61.8764 28.8791 62.2477 29.2363 62.4375C29.3727 62.5106 32.6534 64.2192 38.2855 64.2192C40.6184 64.2192 42.7503 64.9378 44.2873 66.2442C45.4377 67.2216 46.1788 68.4605 46.4389 69.8119H2.55829V69.8105Z" fill="#C28566"/>
</svg>
