<svg width="61" height="72" viewBox="0 0 61 72" fill="none" xmlns="http://www.w3.org/2000/svg">
<path d="M11.452 29.0802C12.238 29.0802 12.8751 28.443 12.8751 27.6571C12.8751 26.8711 12.238 26.234 11.452 26.234C10.6661 26.234 10.029 26.8711 10.029 27.6571C10.029 28.443 10.6661 29.0802 11.452 29.0802Z" fill="#C28566"/>
<path d="M59.5833 26.1651C58.6875 25.1357 57.3629 24.5465 55.9497 24.5465H44.4385V22.1096C44.4385 18.5407 41.5348 15.6369 37.9658 15.6369H36.8507V15.4555C36.8507 12.9047 34.8286 10.8193 32.3031 10.7138V8.28671C33.3605 8.03922 34.2788 7.68345 35.0508 7.21519C36.4851 6.34475 37.1066 5.29292 37.3752 4.56451C37.9743 2.93754 37.3443 1.07293 35.9409 0.320612C35.5415 0.108277 35.1183 0 34.681 0C33.729 0 32.8346 0.528729 32.2946 1.39354C32.0218 1.57213 30.9784 2.1107 28.3193 2.1107H21.6947C18.3297 2.1107 16.2387 4.41123 16.2387 8.11656C16.2387 9.93196 17.5465 11.4099 19.1552 11.4099C20.5881 11.4099 21.7833 10.2371 22.0266 8.69732H25.2088V10.7138C22.6833 10.8193 20.6612 12.9047 20.6612 15.4555V15.6369H19.5447C15.9758 15.6369 13.072 18.5407 13.072 22.1096V22.2052H8.90119C7.05063 22.2052 5.5446 23.7113 5.5446 25.5618V31.9052C4.53354 32.77 3.89091 34.0524 3.89091 35.4853V37.5763C1.97286 38.946 0.666508 41.134 0.49917 43.6441C0.427454 44.7451 0.376831 45.9123 0.350114 47.1103C0.337458 47.7164 0.81697 48.2184 1.42304 48.2325C2.0277 48.2465 2.53112 47.7656 2.54378 47.1596C2.56909 45.9938 2.61831 44.8604 2.68862 43.7889C2.83486 41.5728 4.20168 39.7011 6.10004 38.8152C6.11411 38.8096 6.12676 38.8025 6.13942 38.7969C6.89876 38.4524 7.73967 38.2668 8.57354 38.2668H14.3277C15.1644 38.2668 16.0011 38.4524 16.7618 38.7969C16.7759 38.8025 16.7885 38.8096 16.8012 38.8152C18.7206 39.7053 20.072 41.6754 20.2126 43.7889C20.3237 45.4553 20.3785 47.168 20.3785 48.8765C20.3785 49.6851 20.356 50.4922 20.3392 51.2994C20.3378 51.3275 20.3378 51.3556 20.3364 51.3852C20.3265 51.6706 19.532 52.4581 19.3661 52.7534C19.0933 53.2385 18.8725 53.749 18.7094 54.2805C18.3382 55.4871 18.2594 56.7597 18.2369 58.014C18.2046 59.8927 18.3916 61.7798 18.8064 63.6135C18.8078 63.6219 18.8092 63.6289 18.812 63.6374C18.1188 65.5442 16.3357 66.8055 14.2911 66.8055H8.6101C6.35035 66.8055 4.37042 65.194 3.89935 62.9736C3.15266 59.4511 2.70549 55.5883 2.56909 51.4906C2.5494 50.8846 2.03895 50.4093 1.4357 50.4304C0.829626 50.4501 0.354332 50.9577 0.375425 51.5638C0.516045 55.7894 0.980089 59.7816 1.75209 63.4292C2.4355 66.6579 5.32101 69.002 8.6101 69.002H14.2939C16.4314 69.002 18.3719 68.0556 19.6698 66.4962C20.3631 68.3425 21.2968 70.0552 22.4513 71.5683C22.6594 71.8397 22.9814 72 23.3231 72H44.035C44.3767 72 44.7001 71.8397 44.9068 71.5683C45.2415 71.131 45.5565 70.6754 45.8532 70.2071H55.2902C55.8962 70.2071 56.3884 69.7163 56.3884 69.1089V60.0473L58.9941 41.224C59.077 40.6236 58.658 40.0695 58.0575 39.9866C57.4557 39.9036 56.9031 40.3226 56.8201 40.9231L54.7361 55.9806H48.9988C48.9243 55.2592 48.7668 54.5477 48.5123 53.8685C47.7304 51.7845 46.1302 50.1407 44.1236 49.2829L44.0842 48.9946L41.3505 29.246C41.3407 29.1757 41.3351 29.104 41.3323 29.0337C41.3323 29.0295 41.3323 29.0267 41.3323 29.0225C41.3126 28.3123 41.6936 27.6725 42.2477 27.2521C42.6935 26.9146 43.2784 26.743 43.8339 26.743H55.9511C56.7287 26.743 57.4501 27.058 57.9296 27.6078C58.3374 28.0761 58.5174 28.6583 58.4358 29.2446L57.4276 36.5301C57.3446 37.1306 57.7636 37.6846 58.3641 37.7676C58.9645 37.8505 59.5186 37.4315 59.6015 36.8311L60.6098 29.5442C60.7785 28.3194 60.4143 27.1185 59.5833 26.1651ZM21.6933 6.50084C21.1871 6.50084 20.5585 6.55849 20.1943 6.95926C19.9089 7.27284 19.8751 7.71298 19.8751 8.11656C19.8751 8.76341 19.4955 9.2148 19.1538 9.2148C18.812 9.2148 18.4324 8.76341 18.4324 8.11656C18.4324 4.80075 20.4756 4.30718 21.6933 4.30718H28.3179C29.3416 4.30718 30.4047 4.24249 31.4214 4.02312C32.2975 3.83329 33.2776 3.55205 33.9216 2.89395C34.1564 2.65349 34.2704 2.19788 34.6796 2.19788C34.7527 2.19788 34.8244 2.21757 34.8989 2.25694C35.287 2.46506 35.5458 3.17238 35.3109 3.80798C35.1225 4.31983 34.3055 5.76681 31.0502 6.30116C31.0417 6.30257 31.0347 6.30257 31.0263 6.30397C30.1319 6.45022 29.2235 6.50225 28.3179 6.50225L21.6933 6.50084ZM30.1052 8.62419V10.7068H27.4039V8.69591C27.4067 8.74372 30.1052 8.64669 30.1052 8.62419ZM25.4071 12.9018H32.102C33.5082 12.9018 34.6528 14.0465 34.6528 15.4527V15.6341H22.8563V15.4527C22.8563 14.0465 24.0009 12.9018 25.4071 12.9018ZM7.74107 25.566V25.5604C7.74107 24.9206 8.26137 24.4003 8.90119 24.4003H14.0015C14.0268 24.4003 14.0507 24.4031 14.0746 24.4045C14.0802 24.4045 14.0844 24.4059 14.0886 24.4059C15.3753 24.5001 15.1616 25.9977 15.1616 26.8977C15.1616 27.9903 15.1616 29.0829 15.1616 30.1755C15.1616 30.4019 15.1616 30.6269 15.1616 30.8533C14.8789 30.8013 14.5906 30.7746 14.3024 30.7746C14.3024 30.7746 8.60167 30.7746 8.59885 30.7746C8.33308 30.7746 8.02231 30.8519 7.74248 30.8435C7.65951 29.0956 7.74107 27.3181 7.74107 25.566ZM16.8167 36.4612C16.8167 36.142 14.6371 36.0689 14.3277 36.0689H8.57635C7.73404 36.0689 6.88892 36.2025 6.08739 36.4612V35.4825C6.08739 34.1255 7.24328 32.9682 8.60167 32.9682H14.3052C15.1306 32.9682 15.9279 33.3957 16.3892 34.0791C16.8701 34.7921 16.8167 35.6414 16.8167 36.4612ZM47.5462 66.9728C47.5631 66.918 47.5758 66.8758 47.5856 66.8491C47.9667 65.772 48.307 64.6751 48.5559 63.5586C48.9496 61.7952 49.1423 59.9798 49.1212 58.1729H54.1933V68.0078C54.1933 68.0078 47.0555 68.0078 47.0527 68.0078C47.2411 68.0092 47.4492 67.2935 47.5462 66.9728ZM46.3678 54.4324H41.1846C40.5785 54.4324 40.0864 54.9232 40.0864 55.5306C40.0864 56.1381 40.5771 56.6289 41.1846 56.6289H46.8516C46.8558 56.6753 46.8586 56.7231 46.8628 56.7695C47.2045 61.3171 46.1499 66.0588 43.4809 69.8035H23.8786C22.5328 67.9164 21.5583 65.7017 20.9945 63.3111C20.4812 61.1329 20.3209 58.8591 20.5065 56.6289H36.7931C37.3991 56.6289 37.8913 56.1381 37.8913 55.5306C37.8913 54.9232 37.4005 54.4324 36.7931 54.4324H20.9874C21.2715 53.7588 21.6821 53.1415 22.2052 52.6072C23.3006 51.4878 24.8657 50.8213 26.4505 50.8213H40.9076C41.4096 50.8213 41.9046 50.886 42.3813 51.0111C44.139 51.4681 45.6479 52.7253 46.3678 54.4324ZM42.2421 24.8067C42.2421 24.7997 40.9329 25.4859 40.8077 25.5843C38.6535 27.3013 39.2089 29.8099 39.5365 32.1794L41.8202 48.6768C41.8132 48.6754 41.8061 48.6754 41.7977 48.6754C41.6726 48.6614 41.546 48.6515 41.4194 48.6431C41.3913 48.6417 41.3646 48.6389 41.3365 48.6375C41.1945 48.6304 41.051 48.6248 40.9062 48.6248H26.4505C25.7544 48.6248 25.0598 48.7148 24.3862 48.8906C24.0586 48.9764 23.7351 49.0818 23.4216 49.2056C23.3062 49.252 22.5736 49.5065 22.5722 49.6021C22.575 49.3574 22.575 49.1156 22.575 48.8737C22.575 47.116 22.5174 45.3554 22.4035 43.6413C22.3205 42.3912 21.938 41.1579 21.3066 40.0766C21.0198 39.5858 20.6809 39.1246 20.2984 38.7041C20.1001 38.4861 19.8906 38.2794 19.6698 38.0854C19.5869 38.0123 19.0117 37.641 19.0117 37.5637V35.4811C19.0117 34.1269 18.4 32.784 17.358 31.8981V25.559C17.358 25.4803 17.3538 25.4029 17.3482 25.3256C17.3468 25.3101 17.3454 25.2932 17.344 25.2778C17.2371 23.9967 16.4089 22.9182 15.267 22.4513V22.1068C15.267 19.7486 17.1865 17.8291 19.5447 17.8291H37.963C40.3212 17.8291 42.2407 19.7486 42.2407 22.1068C42.2421 22.1082 42.2421 24.8067 42.2421 24.8067Z" fill="#C28566"/>
</svg>
