<svg width="73" height="72" viewBox="0 0 73 72" fill="none" xmlns="http://www.w3.org/2000/svg">
<path d="M12.0973 56.7916C11.8833 57.3347 11.3637 57.665 10.8132 57.665C10.644 57.665 10.4714 57.6339 10.304 57.5664C5.02068 55.4684 1.81549 52.772 1.03189 49.7711C0.838573 49.0326 1.28043 48.275 2.01916 48.083C2.75789 47.891 3.51215 48.3321 3.70374 49.0724C4.24743 51.1548 6.9538 53.2597 11.324 54.9963C12.0317 55.2764 12.3786 56.0807 12.0973 56.7916ZM16.7903 42.3061C17.0509 42.5275 17.3685 42.6365 17.6844 42.6365C18.0744 42.6365 18.4628 42.4705 18.7355 42.1505C19.2309 41.5693 19.1601 40.6959 18.5802 40.1995C17.8949 39.6149 17.2253 38.9957 16.5884 38.3575C10.5197 32.2762 7.34216 24.5466 8.30527 18.3857C10.8943 17.9792 13.7594 18.3079 16.6626 19.2799C16.7851 19.3439 16.9198 19.3906 17.0596 19.4165C20.9241 20.7864 24.8387 23.2822 28.2354 26.6861C29.0898 27.5422 29.9045 28.452 30.6553 29.386C31.1334 29.981 32.0033 30.0744 32.597 29.5953C33.1908 29.1162 33.284 28.2444 32.8059 27.6495C31.9929 26.6376 31.1127 25.6552 30.1875 24.7282C26.6976 21.2309 22.6725 18.6106 18.625 17.0643C18.5267 14.5615 18.9495 12.2767 19.8453 10.4762C22.1254 10.9726 24.4848 12.3632 26.6061 14.4681C26.3109 15.6495 26.0745 16.8706 25.9036 18.1228C25.8 18.8804 26.3282 19.5774 27.0842 19.6812C27.8402 19.785 28.5358 19.2557 28.6393 18.4981C29.5679 11.7181 32.5056 6.02594 36.5686 3.05275C40.6316 6.02594 43.5693 11.7163 44.4978 18.4947C44.6014 19.2522 45.297 19.7815 46.053 19.6777C46.809 19.5739 47.3371 18.8752 47.2336 18.1193C47.0627 16.8671 46.8262 15.6477 46.5311 14.4681C48.6523 12.3632 51.0135 10.9726 53.2918 10.4762C54.1859 12.2767 54.6105 14.5615 54.5121 17.0643C50.4646 18.6123 46.4396 21.2326 42.9496 24.7282C42.0245 25.6552 41.1442 26.6376 40.3313 27.6495C39.8532 28.2444 39.9464 29.1162 40.5401 29.5953C41.1339 30.0744 42.0038 29.981 42.4819 29.386C43.2327 28.452 44.0474 27.544 44.9017 26.6861C48.2985 23.2822 52.2114 20.7847 56.0759 19.4165C56.2174 19.3906 56.352 19.3439 56.4746 19.2799C59.3777 18.3096 62.2429 17.9792 64.8319 18.3857C65.795 24.5483 62.6174 32.2779 56.5488 38.3575C55.9119 38.9957 55.2422 39.6149 54.557 40.1995C53.9771 40.6941 53.9063 41.5676 54.3999 42.1505C54.8936 42.7316 55.7652 42.8025 56.3469 42.3079C57.0873 41.6766 57.8122 41.0055 58.5009 40.3154C65.5154 33.288 68.9898 24.0951 67.357 16.8982C67.2397 16.3794 66.8358 15.9746 66.3163 15.8553C63.5253 15.2188 60.434 15.3554 57.2841 16.1735C57.2547 13.126 56.5298 10.3517 55.187 8.21562C54.9039 7.76593 54.3878 7.51859 53.8597 7.57913C51.086 7.90084 48.2174 9.28452 45.6387 11.5244C43.8558 6.53099 40.9336 2.50274 37.3021 0.212741C36.8534 -0.0709138 36.2803 -0.0709138 35.8316 0.212741C32.2001 2.50274 29.2779 6.53099 27.495 11.5244C24.9163 9.28452 22.0512 7.90084 19.274 7.57913C18.7459 7.51859 18.2315 7.76593 17.9485 8.21562C16.6073 10.3517 15.8841 13.126 15.8548 16.1735C12.7066 15.3554 9.61358 15.2188 6.82263 15.8553C6.30483 15.9729 5.90094 16.3794 5.78185 16.8982C4.14732 24.0951 7.62349 33.2862 14.638 40.3154C15.3249 41.0037 16.0498 41.6731 16.7903 42.3061ZM16.1361 53.1265C16.3881 52.4053 16.0084 51.6166 15.2887 51.3641C11.1221 49.9043 8.63493 48.0588 8.63493 46.4295C8.63493 45.3762 9.71886 44.1862 11.6865 43.0775C12.351 42.7039 12.5875 41.8599 12.2129 41.194C11.8401 40.5281 10.9978 40.2911 10.3333 40.6665C7.37322 42.3338 5.87333 44.2727 5.87333 46.4313C5.87333 49.42 8.81444 52.0282 14.3773 53.9792C14.5275 54.0329 14.6811 54.0571 14.833 54.0571C15.4043 54.0553 15.9377 53.6973 16.1361 53.1265ZM57.5758 51.4609C56.8543 51.7065 56.4677 52.4918 56.7128 53.2165C56.9078 53.7924 57.4446 54.1557 58.0194 54.1557C58.1661 54.1557 58.3162 54.1314 58.4629 54.0813C64.2226 52.1216 67.269 49.4754 67.269 46.4295C67.269 44.3488 65.871 42.4687 63.1145 40.8412C62.4569 40.4537 61.6112 40.6717 61.2246 41.3306C60.8379 41.9896 61.0554 42.8371 61.713 43.2246C63.515 44.2883 64.5074 45.4263 64.5074 46.4278C64.5057 48.0778 61.8511 50.0063 57.5758 51.4609ZM50.2644 61.5739C50.2644 62.9749 49.127 64.1165 47.7272 64.1165C46.9643 64.1165 46.3464 64.7357 46.3464 65.5001C46.3464 66.2646 46.9643 66.8838 47.7272 66.8838C50.6493 66.8838 53.026 64.5022 53.026 61.5739C53.026 60.8095 52.4081 60.1903 51.6452 60.1903C50.8823 60.1903 50.2644 60.8095 50.2644 61.5739ZM70.9799 48.083C70.2429 47.891 69.4869 48.3321 69.2953 49.0724C68.7517 51.1565 66.047 53.2597 61.6768 54.9963C60.9674 55.2782 60.6204 56.0824 60.9018 56.7933C61.1158 57.3364 61.6371 57.6668 62.1859 57.6668C62.3551 57.6668 62.5277 57.6356 62.6951 57.5682C67.9784 55.4684 71.1853 52.772 71.9689 49.7711C72.1605 49.0326 71.7169 48.2767 70.9799 48.083ZM46.4431 48.6832C46.4431 49.4373 45.832 50.0496 45.0795 50.0496C44.3166 50.0496 43.6987 50.6688 43.6987 51.4333C43.6987 52.1978 44.3166 52.8169 45.0795 52.8169C47.3544 52.8169 49.2047 50.9628 49.2047 48.6832C49.2047 47.9187 48.5867 47.2995 47.8239 47.2995C47.061 47.2995 46.4431 47.9204 46.4431 48.6832ZM42.4974 39.8466H42.8581C43.621 39.8466 44.2389 39.2274 44.2389 38.463C44.2389 37.6985 43.621 37.0793 42.8581 37.0793H42.4974C41.7345 37.0793 41.1166 37.6985 41.1166 38.463C41.1166 39.2274 41.7362 39.8466 42.4974 39.8466ZM56.7611 55.7106C58.0263 57.4696 58.696 59.5434 58.696 61.7071C58.696 67.382 54.0892 72 48.4245 72H24.7178C19.0548 72 14.4464 67.3837 14.4464 61.7088C14.4464 57.9435 16.5279 54.4981 19.759 52.7028C19.3068 51.6789 19.0565 50.5443 19.0565 49.3543C19.0565 45.7342 21.378 42.6469 24.6074 41.5088C23.8945 40.4745 23.4751 39.2205 23.4751 37.8697C23.4751 34.3327 26.3472 31.4546 29.8769 31.4546H43.2655C46.7952 31.4546 49.6672 34.3327 49.6672 37.8697C49.6672 41.4067 46.7952 44.2848 43.2655 44.2848H29.8769C29.0173 44.2848 28.1975 44.1136 27.4467 43.8057C27.4156 43.8074 27.3828 43.8092 27.3517 43.8092C24.3001 43.8092 21.8182 46.2963 21.8182 49.3543C21.8182 50.4976 22.1651 51.563 22.7605 52.4468C22.8072 52.5039 22.8503 52.5644 22.8883 52.6284C23.8963 54.0035 25.5222 54.8994 27.3517 54.8994H45.7906C48.8422 54.8994 51.3242 52.4122 51.3242 49.3543C51.3242 47.7077 50.5924 46.1528 49.3151 45.0891C48.7283 44.6013 48.6489 43.7279 49.1356 43.1398C49.6223 42.5517 50.494 42.4722 51.0808 42.9599C52.9898 44.5512 54.0858 46.8809 54.0858 49.3526C54.0858 53.936 50.3645 57.665 45.7906 57.665H27.3517C24.9612 57.665 22.8037 56.6463 21.2883 55.0187C18.8149 56.3004 17.208 58.8809 17.208 61.7071C17.208 65.8564 20.5772 69.2326 24.7178 69.2326H48.4245C52.5652 69.2326 55.9343 65.8564 55.9343 61.7088C55.9343 60.1297 55.4459 58.6163 54.5208 57.3312C54.0754 56.712 54.2152 55.8472 54.8332 55.3992C55.4511 54.9513 56.3141 55.0914 56.7611 55.7106ZM26.2367 37.8697C26.2367 39.8812 27.8695 41.5174 29.8769 41.5174H43.2655C45.2728 41.5174 46.9056 39.8812 46.9056 37.8697C46.9056 35.8582 45.2728 34.222 43.2655 34.222H29.8769C27.8695 34.222 26.2367 35.8582 26.2367 37.8697Z" fill="#C28566"/>
</svg>
