<svg width="60" height="55" viewBox="0 0 60 55" fill="none" xmlns="http://www.w3.org/2000/svg">
<path d="M57.3946 39.2009C56.4307 37.5142 54.3125 36.6337 52.5649 37.3339C49.6523 38.4902 46.7714 39.7525 43.88 40.9619C42.0583 41.7257 40.2472 42.5001 38.4149 43.2426C38.0018 43.4124 37.5252 43.5185 37.0803 43.5185C33.8712 43.5397 30.6514 43.5291 27.4422 43.5291C27.3575 43.5291 27.2728 43.5185 27.1562 43.5078C27.1562 42.8926 27.1562 42.2985 27.1562 41.6196C27.3363 41.6196 27.5164 41.6196 27.707 41.6196C30.7467 41.6196 33.7758 41.6196 36.8156 41.6196C37.4405 41.6196 38.0018 41.4711 38.4254 40.9725C38.9126 40.4102 39.0292 39.7738 38.7644 39.0948C38.5208 38.4477 38.0018 38.0976 37.3239 38.0022C37.1015 37.9703 36.8685 37.9703 36.6355 37.9703C34.3372 37.9703 32.0495 38.0128 29.7511 37.9491C28.9991 37.9279 28.2048 37.7582 27.5058 37.4718C25.3981 36.5807 23.3116 35.6153 21.2357 34.6606C20.4202 34.2787 19.5728 34.0983 18.6726 34.0983C16.9568 34.0983 15.2516 34.0983 13.4934 34.0983C13.4934 33.4725 13.4934 32.8678 13.4934 32.1995C13.8429 32.1995 14.1924 32.1995 14.542 32.1995C16.2048 32.2207 17.8676 32.1676 19.5199 32.2949C20.4519 32.3692 21.3946 32.6556 22.263 33.0163C24.1907 33.8331 26.0653 34.7879 27.993 35.6259C28.5543 35.8699 29.211 36.0184 29.8253 36.029C32.1342 36.0715 34.4537 36.0821 36.7626 36.0396C39.1139 35.9972 40.459 37.6203 40.7344 39.0842C40.7979 39.4131 40.7979 39.7525 40.8403 40.1556C41.0203 40.092 41.1898 40.0283 41.3487 39.9541C44.6214 38.5538 47.9047 37.1747 51.1774 35.7638C54.196 34.459 57.2251 35.6471 58.6973 37.6415C59.2269 38.3522 59.5552 39.2009 60 40.0283C59.7458 40.1769 59.6081 40.2723 59.4599 40.3466C53.3381 43.5927 47.2163 46.8388 41.0839 50.0744C38.8703 51.2413 36.6673 52.44 34.4113 53.5326C32.2507 54.5723 29.963 54.7102 27.6646 53.9676C24.2013 52.8643 20.7591 51.7292 17.2957 50.6366C16.692 50.4456 16.0247 50.382 15.3893 50.329C14.775 50.2759 14.1607 50.3183 13.5146 50.3183C13.5146 49.6819 13.5146 49.0878 13.5146 48.3452C14.7856 48.4513 16.1201 48.3452 17.3169 48.6953C20.812 49.7243 24.2542 50.9336 27.7282 52.0687C30.0159 52.8113 32.2083 52.6734 34.369 51.5065C41.8676 47.4753 49.3981 43.4866 56.9179 39.4873C57.0662 39.4025 57.2251 39.2964 57.3946 39.2009Z" fill="#C28566"/>
<path d="M30.7996 0.629217C31.3292 0.470093 31.5304 0.735299 31.7105 1.17024C32.5896 3.34493 33.511 5.50901 34.3901 7.67309C34.5172 7.98073 34.6655 8.09742 34.9938 8.12925C37.3557 8.39445 39.7281 8.68087 42.09 8.9673C42.3548 8.99912 42.6302 9.02034 42.6725 9.37041C42.7255 9.75231 43.1068 10.1024 42.6302 10.5161C40.9144 11.9906 39.2409 13.5076 37.5146 14.9716C37.0379 15.3747 36.8897 15.7247 37.0273 16.3506C37.504 18.5571 37.8747 20.7849 38.3407 23.002C38.4784 23.6597 37.9488 23.734 37.6522 24.0204C37.3875 24.2856 37.1862 24.0734 36.9638 23.9355C34.9091 22.6944 32.8438 21.4744 30.7996 20.2226C30.5137 20.0529 30.323 20.1272 30.0794 20.2651C28.0035 21.4214 25.917 22.5671 23.8411 23.734C23.5446 23.8931 23.3115 23.9886 23.0468 23.7021C22.7714 23.4051 22.2948 23.3203 22.4536 22.6944C23.0362 20.3818 23.534 18.0586 24.0953 15.7354C24.18 15.3853 24.0953 15.1837 23.8517 14.961C22.1253 13.3485 20.4201 11.7042 18.6619 10.113C18.2065 9.69927 18.5243 9.37041 18.5772 8.98851C18.6302 8.60662 18.9055 8.5854 19.1915 8.56418C21.5852 8.35202 23.9682 8.12925 26.3619 7.92769C26.669 7.90647 26.8173 7.77917 26.9444 7.51397C27.9188 5.40293 28.925 3.29189 29.8994 1.18085C30.09 0.756516 30.2912 0.417052 30.7996 0.629217ZM30.7361 3.90716C30.5984 4.19359 30.5031 4.36332 30.4183 4.53305C29.6875 6.11368 28.9461 7.69431 28.2259 9.29615C28.0882 9.59318 27.9294 9.70988 27.601 9.73109C26.0547 9.85839 24.5084 10.0069 22.962 10.1554C22.5384 10.1979 22.1253 10.2509 21.5852 10.3145C23.0574 11.6724 24.413 12.956 25.8111 14.1972C26.203 14.5472 26.3619 14.8655 26.1924 15.3747C26.0547 15.7672 25.9912 16.1915 25.8958 16.6052C25.5569 18.0267 25.2286 19.4482 24.8791 20.944C25.1015 20.8273 25.2604 20.7531 25.4086 20.6682C26.9232 19.8301 28.4378 19.0027 29.9311 18.1328C30.3548 17.8888 30.6619 17.8994 31.075 18.154C32.5366 19.0663 34.03 19.9468 35.5128 20.8379C35.6611 20.9228 35.8093 21.0077 36.0318 21.1243C35.6505 19.1194 35.2904 17.1993 34.8985 15.2792C34.8243 14.9291 34.8879 14.7064 35.1739 14.4624C36.5296 13.3273 37.8535 12.1604 39.188 11.0041C39.3257 10.8874 39.4528 10.7601 39.654 10.5691C37.7793 10.3358 36.0106 10.0812 34.2418 9.92204C33.5004 9.85839 33.1085 9.57197 32.8332 8.87182C32.1977 7.24876 31.4775 5.63631 30.7361 3.90716Z" fill="#C28566"/>
<path d="M38.5419 17.9738C38.9762 17.5707 39.3998 17.1782 39.8658 16.7433C40.6072 17.4328 41.4016 18.1224 42.1218 18.8649C42.2807 19.0241 42.2701 19.4272 42.2171 19.6924C41.9312 21.0184 41.5922 22.3338 41.2745 23.6599C41.2533 23.7553 41.2427 23.8614 41.2004 24.063C42.5349 23.331 43.7952 22.6521 45.0556 21.9519C45.4899 21.7079 45.8923 21.6973 46.3266 21.9625C47.5552 22.7157 48.8049 23.4583 50.1289 24.2539C49.8853 22.9915 49.7264 21.814 49.4192 20.6683C49.1333 19.6075 49.2498 18.8331 50.2348 18.186C51.0185 17.6662 51.6964 16.9661 52.4166 16.3402C52.5967 16.181 52.7767 16.0219 53.0521 15.7673C51.188 15.5446 49.451 15.343 47.714 15.1414C47.481 13.4653 46.5066 12.0438 45.9559 10.3147C45.4687 11.3649 45.0344 12.2878 44.6108 13.2213C44.4095 13.6563 44.2189 14.0912 44.0071 14.5156C43.8164 14.8974 43.5516 15.1414 43.0644 15.1308C42.4819 15.1308 41.91 15.2263 41.2533 15.3006C41.1898 14.6853 41.1262 14.0912 41.0627 13.4123C41.4016 13.3805 41.7087 13.3168 42.0159 13.3274C42.3442 13.338 42.5137 13.2107 42.6514 12.9031C43.4245 11.2164 44.2295 9.55089 45.0132 7.87479C45.3628 7.13221 45.5852 6.9943 46.3795 7.17465C46.5596 7.21708 46.7502 7.47168 46.835 7.67323C47.3857 8.93561 47.9153 10.2086 48.4448 11.471C48.5825 11.7998 48.7732 12.1075 48.8473 12.4469C49.0274 13.2744 49.5675 13.4547 50.3195 13.5184C51.9824 13.6669 53.6452 13.9003 55.308 14.1018C55.9859 14.1867 56.3566 14.802 56.0918 15.4491C55.9965 15.6825 55.8164 15.9052 55.6258 16.075C54.3019 17.2419 52.9674 18.3982 51.6117 19.5333C51.3469 19.756 51.2727 19.9682 51.3363 20.3077C51.7176 22.2065 52.0671 24.1266 52.459 26.0255C52.5437 26.4498 52.406 26.6726 52.0671 26.8742C51.7388 27.0757 51.5057 27.2879 51.0503 27.0015C49.4298 25.9725 47.7564 25.0177 46.1147 24.0099C45.797 23.819 45.564 23.8402 45.2568 24.0099C43.5516 24.9647 41.8358 25.9088 40.12 26.8529C39.9082 26.9696 39.6752 27.1394 39.474 26.8529C39.2516 26.5241 38.6796 26.4817 38.8385 25.8345C39.3257 23.9038 39.7493 21.9519 40.173 20C40.2048 19.8409 40.1306 19.5863 40.0141 19.459C39.5481 18.9816 39.0715 18.5149 38.5419 17.9738Z" fill="#C28566"/>
<path d="M10.9197 24.0735C12.2648 23.331 13.5357 22.6414 14.7961 21.9413C15.1986 21.7185 15.5693 21.7079 15.9718 21.9519C17.2004 22.7051 18.4395 23.4476 19.7846 24.2645C19.594 23.1612 19.4139 22.1853 19.2445 21.2093C18.8208 18.7376 18.5878 19.3953 20.4095 17.7722C20.6002 17.5919 20.812 17.4328 21.0238 17.2524C21.4475 17.7404 21.85 18.2072 22.2948 18.727C21.9665 18.9922 21.6699 19.268 21.3522 19.4908C21.0026 19.7348 20.9073 20 20.9921 20.4243C21.3839 22.3126 21.7229 24.2008 22.1041 26.0891C22.1783 26.4392 22.1253 26.6619 21.8076 26.8211C21.4793 26.9908 21.2674 27.3727 20.7485 27.0544C19.0962 26.0042 17.391 25.0389 15.7176 24.0205C15.4422 23.8508 15.241 23.8508 14.955 24.0099C13.2498 24.9752 11.5234 25.8981 9.83936 26.8847C9.25684 27.2242 9.0662 26.7256 8.70609 26.5452C8.37776 26.3861 8.43071 26.1315 8.49426 25.8345C8.94969 23.9144 9.39453 21.9837 9.81818 20.053C9.86055 19.8727 9.75463 19.5968 9.62754 19.4696C8.3248 18.2072 7.00088 16.9554 5.66637 15.7142C5.46514 15.5233 5.22154 15.3854 5.00971 15.2369C4.99912 15.1944 4.98853 15.1732 4.98853 15.1626C5.31686 13.8366 5.31686 13.8472 6.69373 13.7411C8.39894 13.6138 10.1041 13.4759 11.8094 13.3168C11.9788 13.3062 12.2118 13.1576 12.2754 13.0091C13.1333 11.1951 13.9806 9.3705 14.7961 7.52467C15.0291 6.99425 15.4528 7.25946 15.7811 7.16399C16.0883 7.06851 16.2683 7.22764 16.3848 7.51406C17.105 9.20077 17.8782 10.8663 18.5455 12.5742C18.8102 13.2425 19.1703 13.5608 19.88 13.5502C20.1553 13.5395 20.4307 13.6244 20.759 13.6668C20.6743 14.2715 20.6002 14.8444 20.5154 15.4596C19.6046 15.3854 18.7043 15.3536 17.8252 15.2156C17.6346 15.1838 17.4545 14.8231 17.3486 14.5792C16.8402 13.4335 16.3636 12.2772 15.8764 11.1209C15.7917 10.9193 15.6964 10.7071 15.5587 10.3995C15.421 10.6859 15.3257 10.8875 15.2304 11.0784C14.7114 12.2029 14.1818 13.3168 13.6734 14.4412C13.4722 14.8974 13.2074 15.1308 12.6461 15.1626C11.2268 15.2369 9.80759 15.4172 8.26125 15.5657C8.60018 15.8946 8.86496 16.1386 9.11915 16.3932C9.88173 17.1039 10.6125 17.8571 11.4175 18.5148C11.9153 18.9285 11.9576 19.3635 11.8199 19.9151C11.5128 21.1987 11.2268 22.4929 10.9303 23.7871C10.9515 23.8295 10.9515 23.8932 10.9197 24.0735Z" fill="#C28566"/>
<path d="M0 31.6797C0 31.022 0 30.428 0 29.7915C0.201236 29.7809 0.370697 29.7703 0.540159 29.7703C3.4316 29.7703 6.33363 29.7703 9.22507 29.7703C10.6549 29.7703 11.4492 30.5659 11.4492 32.0086C11.4492 38.5115 11.4492 45.0249 11.4492 51.5278C11.4492 52.9705 10.6973 53.7343 9.27802 53.7343C6.34422 53.7343 3.42101 53.7343 0.487202 53.7343C0.349515 53.7343 0.211827 53.7343 0.0317741 53.7343C0.0317741 53.1084 0.0317741 52.525 0.0317741 51.8778C3.17741 51.8778 6.32304 51.8778 9.52162 51.8778C9.52162 45.131 9.52162 38.4372 9.52162 31.6797C6.35481 31.6797 3.188 31.6797 0 31.6797Z" fill="#C28566"/>
<path d="M5.71931 47.5708C6.50307 47.5708 7.04323 48.1224 7.03264 48.9074C7.02205 49.6288 6.43952 50.2016 5.70872 50.2123C4.96733 50.2229 4.35303 49.6076 4.35303 48.8756C4.36362 48.1224 4.94614 47.5708 5.71931 47.5708Z" fill="#C28566"/>
</svg>
